<svg width="85" height="85" viewBox="0 0 85 85" fill="none" xmlns="http://www.w3.org/2000/svg">
<path d="M42.5 0C19.0482 0 0 19.0482 0 42.5C0 65.9518 19.0482 85 42.5 85C65.9518 85 85 65.9518 85 42.5C85 19.0482 65.9518 0 42.5 0ZM42.5 81.3133C21.0964 81.3133 3.68675 63.9036 3.68675 42.5C3.68675 21.0964 21.0964 3.68675 42.5 3.68675C63.9036 3.68675 81.3133 21.0964 81.3133 42.5C81.3133 63.9036 63.9036 81.3133 42.5 81.3133Z" fill="black"/>
<path d="M64.6205 33.2831H51.7169V20.3795C51.7169 19.3554 50.8976 18.5361 49.8735 18.5361H35.1265C34.1024 18.5361 33.2831 19.3554 33.2831 20.3795V33.2831H20.3795C19.3554 33.2831 18.5361 34.1024 18.5361 35.1265V49.8735C18.5361 50.8976 19.3554 51.7169 20.3795 51.7169H33.2831V64.6205C33.2831 65.6446 34.1024 66.4638 35.1265 66.4638H49.8735C50.8976 66.4638 51.7169 65.6446 51.7169 64.6205V51.7169H64.6205C65.6446 51.7169 66.4639 50.8976 66.4639 49.8735V35.1265C66.3614 34.1024 65.5422 33.2831 64.6205 33.2831ZM62.8795 48.0301H62.7771H49.8735C48.8494 48.0301 48.0301 48.8494 48.0301 49.8735V62.7771H36.9699V49.8735C36.9699 48.8494 36.1506 48.0301 35.1265 48.0301H22.2229V36.9699H35.1265C36.1506 36.9699 36.9699 36.1506 36.9699 35.1265V22.2229H48.1325V35.1265C48.1325 36.1506 48.9518 36.9699 49.9759 36.9699H62.8795V48.0301Z" fill="black"/>
</svg>
