<svg width="237" height="221" viewBox="0 0 237 221" fill="none" xmlns="http://www.w3.org/2000/svg">
<path fill-rule="evenodd" clip-rule="evenodd" d="M130.677 150.611C137.821 148.722 144.282 147.645 150.778 147.197C148.73 145.609 146.638 143.993 144.528 142.381C141.897 130.242 139.298 118.301 136.728 106.557C134.206 95.0345 131.726 83.6861 129.255 72.5372C129.608 69.2419 130.201 67.2988 131.188 64.9264C126.702 68.9089 121.66 72.3377 116.167 75.3791C118.02 76.1372 120.568 77.0485 121.679 79.8669C123.824 90.1707 126.036 100.63 128.265 111.254C130.532 122.054 132.804 133.042 135.14 144.163C133.654 146.301 132.166 148.436 130.677 150.611" fill="#59362D"/>
<path fill-rule="evenodd" clip-rule="evenodd" d="M133.471 147.816C140.617 145.927 147.078 144.85 153.574 144.401C151.525 142.814 149.433 141.198 147.323 139.585C144.693 127.446 142.094 115.506 139.523 103.761C137.001 92.2388 134.523 80.8908 132.051 69.7412C132.404 66.4457 132.997 64.5026 133.984 62.1302C129.498 66.1119 124.456 69.5426 118.963 72.5829C120.816 73.3414 123.364 74.2524 124.474 77.0712C126.62 87.3741 128.832 97.835 131.061 108.458C133.327 119.259 135.6 130.245 137.937 141.367C136.45 143.506 134.961 145.64 133.471 147.816" fill="url(#paint0_linear)"/>
<path fill-rule="evenodd" clip-rule="evenodd" d="M200.907 145.4C203.75 146.512 203.639 153.387 196.711 152.516C192.287 151.336 186.879 144.992 181.651 136.289C177.198 128.878 171.656 120.363 166.359 114.672C162.038 110.028 157.645 107.859 153.243 107.999C150.498 108.087 147.533 108.398 145.151 111.365C143.352 113.607 145.174 117.234 147.553 118.592C152.781 121.577 157.99 120.934 163.461 118.044C163.503 118.022 172.506 139.001 176.911 144.263C181.544 149.817 185.567 152.042 190.709 154.285C206.221 159.239 209.104 144.391 200.907 145.4Z" fill="#59362D"/>
<path fill-rule="evenodd" clip-rule="evenodd" d="M163.994 113.044C162.627 113.341 161.571 115.049 160.473 114.278C158.757 113.12 156.84 111.616 155.103 110.641C146.53 110.376 147.01 114.894 150.683 116.513C157.4 118.206 160.672 115.216 164.755 112.276C176.793 104.786 177.984 74.7853 148.363 62.3181C135.538 58.508 108.779 57.9392 106.409 74.8099C108.281 82.1059 114.027 82.3803 115.654 77.1561C121.766 88.1807 108.407 90.2984 102.853 81.251C100.067 76.7114 99.5089 70.084 109.984 62.2063C113.743 59.4083 119.147 58.0186 124.527 57.1618C135.01 55.5067 146.571 56.7774 154.139 59.3048C168.987 65.1672 180.624 75.6807 180.378 96.4587C177.965 107.664 173.825 111.607 167.864 116.292C166.566 115.217 165.29 114.133 163.994 113.044" fill="#59362D"/>
<path fill-rule="evenodd" clip-rule="evenodd" d="M202.305 142.604C205.148 143.716 205.037 150.591 198.109 149.72C193.685 148.54 188.277 142.196 183.049 133.494C178.596 126.082 173.054 117.567 167.757 111.876C163.435 107.232 159.043 105.063 154.641 105.203C151.896 105.292 148.93 105.602 146.549 108.569C144.75 110.811 146.571 114.438 148.951 115.796C154.179 118.78 159.388 118.137 164.859 115.248C164.901 115.226 173.905 136.206 178.308 141.467C182.942 147.02 186.964 149.247 192.106 151.489C207.619 156.443 210.502 141.595 202.305 142.604" fill="url(#paint1_linear)"/>
<path fill-rule="evenodd" clip-rule="evenodd" d="M165.392 110.248C164.025 110.544 162.968 112.253 161.871 111.481C160.155 110.324 158.238 108.82 156.501 107.845C147.929 107.581 148.407 112.099 152.08 113.717C158.798 115.41 162.07 112.42 166.153 109.481C178.19 101.991 179.382 71.99 149.761 59.5217C136.936 55.7122 110.177 55.1439 107.807 72.0137C109.679 79.3109 115.425 79.5849 117.051 74.3608C123.163 85.3849 109.805 87.503 104.252 78.4556C101.465 73.9152 100.907 67.2889 111.382 59.4109C115.141 56.6137 120.544 55.2225 125.925 54.3664C136.409 52.7099 147.97 53.9824 155.537 56.509C170.385 62.3718 182.021 72.8841 181.776 93.6621C179.363 104.869 175.223 108.812 169.262 113.496C167.963 112.421 166.689 111.338 165.392 110.248" fill="url(#paint2_linear)"/>
<path d="M181.305 163.695C181.282 163.7 181.282 163.7 181.282 163.7C181.26 163.704 181.26 163.704 181.26 163.704C180.452 164.206 179.725 164.673 179.054 165.061C178.379 165.426 177.619 165.841 176.724 166.306C172.6 168.446 168.226 170.102 163.578 171.251C163.578 171.251 163.573 171.23 163.569 171.209C143.565 176.136 121.512 171.474 102.544 159.025C82.4109 145.908 67.2557 125.067 63.2018 100.958C63.1572 100.959 63.1345 100.962 63.1345 100.962C63.1345 100.962 63.1345 100.962 63.1319 100.935C63.1319 100.935 63.1537 100.934 63.1982 100.933C59.2638 77.6653 66.8746 57.8368 81.1224 45.2342C94.0762 33.8125 112.133 28.7061 131.813 31.4349C131.813 31.4349 131.813 31.4349 131.809 31.4137C131.813 31.4349 131.813 31.4349 131.813 31.4349C149.679 33.9282 166.108 42.5275 178.749 54.1241C190.84 65.2677 200.208 79.8445 204.497 95.86C204.497 95.86 204.497 95.86 204.52 95.8588C204.524 95.8769 204.524 95.8769 204.524 95.8769C204.503 95.8773 204.503 95.8773 204.503 95.8773C206.441 103.142 207.278 110.449 206.977 117.485C206.914 118.501 206.863 119.654 206.728 120.911C206.15 126.954 204.766 132.814 202.484 138.28C199.605 136.171 196.659 134.034 193.718 131.882C195.733 127.276 197.033 122.385 197.579 117.391C197.689 116.553 197.769 115.566 197.811 114.449C198.195 108.46 197.561 102.279 195.943 96.134C195.922 96.1348 195.922 96.1348 195.922 96.1348C195.922 96.1348 195.922 96.1348 195.917 96.1162C195.917 96.1162 195.917 96.1162 195.939 96.1162C192.355 82.4464 184.324 70.0613 173.905 60.6476C163.137 50.9262 149.222 43.9738 134.329 42.2938C134.333 42.315 134.337 42.3361 134.337 42.3361C134.337 42.3361 134.333 42.315 134.329 42.2938C118.17 40.5322 103.611 45.2048 93.4692 54.9696C82.4434 65.5205 76.8608 81.5832 80.2249 100.208C80.2249 100.208 80.2249 100.208 80.2472 100.206C80.2512 100.231 80.2512 100.231 80.2512 100.231C80.2289 100.234 80.2289 100.234 80.2289 100.234C83.6676 119.362 95.6134 136.063 111.482 146.789C126.52 157.114 144.28 161.431 160.615 158.052C160.615 158.052 160.615 158.052 160.611 158.03C164.555 157.21 168.202 155.991 171.629 154.4C172.183 154.148 172.812 153.814 173.549 153.436C174.241 153.066 174.865 152.714 175.404 152.405C175.404 152.405 175.404 152.405 175.427 152.401C175.607 152.788 175.832 153.191 176.03 153.553C177.791 156.944 179.537 160.34 181.304 163.696" fill="#59362D"/>
<path d="M184.088 162.303C184.066 162.307 184.066 162.307 184.066 162.307C184.043 162.311 184.043 162.311 184.043 162.311C183.235 162.814 182.507 163.279 181.837 163.668C181.161 164.033 180.402 164.449 179.508 164.914C175.384 167.053 171.009 168.709 166.362 169.859C166.362 169.859 166.357 169.837 166.352 169.816C146.347 174.743 124.294 170.081 105.327 157.631C85.1932 144.516 70.0381 123.674 65.9841 99.5658C65.9396 99.5671 65.9176 99.5684 65.9176 99.5684C65.9176 99.5684 65.9176 99.5684 65.9136 99.542C65.9136 99.542 65.9367 99.5407 65.9805 99.538C62.0464 76.2716 69.6576 56.4442 83.9046 43.8414C96.8585 32.4196 114.915 27.3135 134.595 30.0419C134.595 30.0419 134.595 30.0419 134.592 30.02C134.595 30.0419 134.595 30.0419 134.595 30.0419C152.462 32.5345 168.891 41.1344 181.531 52.7308C193.624 63.8736 202.991 78.452 207.281 94.4659C207.281 94.4659 207.281 94.4659 207.303 94.4655C207.307 94.4832 207.307 94.4832 207.307 94.4832C207.284 94.484 207.284 94.484 207.284 94.484C209.223 101.749 210.06 109.056 209.759 116.092C209.697 117.107 209.645 118.26 209.51 119.518C208.932 125.56 207.548 131.421 205.267 136.887C202.388 134.777 199.442 132.641 196.501 130.488C198.516 125.883 199.816 120.992 200.36 115.998C200.471 115.159 200.551 114.173 200.593 113.055C200.976 107.066 200.344 100.885 198.725 94.7403C198.705 94.7416 198.705 94.7416 198.705 94.7416C198.705 94.7416 198.705 94.7416 198.698 94.7223C198.698 94.7223 198.698 94.7223 198.721 94.7216C195.137 81.0517 187.107 68.6677 176.687 59.2538C165.919 49.5328 152.005 42.5804 137.111 40.8992C137.115 40.9208 137.121 40.9423 137.121 40.9423C137.121 40.9423 137.117 40.9208 137.111 40.8992C120.952 39.1387 106.393 43.8114 96.2504 53.5758C85.2263 64.1263 79.6432 80.1893 83.0073 98.8129C83.0073 98.8129 83.0073 98.8129 83.0296 98.8117C83.0336 98.836 83.0336 98.836 83.0336 98.836C83.0112 98.8387 83.0112 98.8387 83.0112 98.8387C86.4499 117.968 98.3951 134.67 114.265 145.394C129.302 155.72 147.063 160.037 163.397 156.658C163.397 156.658 163.397 156.658 163.393 156.637C167.337 155.817 170.984 154.597 174.411 153.005C174.966 152.753 175.595 152.42 176.332 152.042C177.024 151.672 177.648 151.321 178.187 151.009C178.187 151.009 178.187 151.009 178.21 151.005C178.389 151.393 178.614 151.796 178.813 152.158C180.575 155.55 182.32 158.946 184.087 162.302" fill="url(#paint3_linear)"/>
<path d="M89.8209 189.421C87.9613 191.836 86.1328 194.237 84.2329 196.658C82.9713 198.265 82.3288 199.362 82.3616 199.973C82.4066 200.818 82.9516 201.523 83.8984 202.107C84.2177 202.304 84.5235 202.511 84.8757 202.694C84.6668 202.941 84.4573 203.174 84.3127 203.382C80.6249 201.22 77.0148 199.017 73.3206 196.8C73.4809 196.566 73.6744 196.306 73.8989 196.047C74.2038 196.268 74.5543 196.43 74.8797 196.633C75.9689 197.316 76.9985 197.423 78.0129 197.002C78.5893 196.762 79.4443 195.923 80.5887 194.493C84.9264 189.075 89.0422 183.847 93.1193 178.686C94.2633 177.239 94.8473 176.26 94.7952 175.686C94.7245 174.908 94.2827 174.183 93.3835 173.59C93.074 173.387 92.7561 173.199 92.4817 172.99C92.6117 172.783 92.7897 172.588 92.9852 172.38C95.8675 174.324 98.7625 176.191 101.625 178.067C103.696 179.425 105.095 180.709 105.954 181.922C106.819 183.142 107.273 184.472 107.326 186.03C107.379 187.616 106.895 189.079 105.861 190.511C104.458 192.454 102.607 193.649 100.416 194.077C98.1808 194.514 95.9313 193.966 93.5732 192.495C92.964 192.116 92.3736 191.696 91.7451 191.179C91.1381 190.68 90.494 190.046 89.8209 189.421V189.421ZM90.6285 188.356C91.1909 188.877 91.6687 189.351 92.1208 189.71C92.5671 190.066 92.9731 190.371 93.3396 190.61C94.5616 191.401 95.9709 191.563 97.5856 191.149C99.145 190.748 100.539 189.815 101.674 188.334C102.47 187.296 103.011 186.193 103.241 185.075C103.477 183.933 103.403 182.904 102.971 181.982C102.544 181.07 101.838 180.288 100.905 179.665C100.297 179.257 99.4424 178.894 98.3313 178.503C95.8145 181.747 93.2848 185.031 90.6285 188.356ZM121.321 201.765C125.34 202.56 129.279 203.343 133.201 204.098C133.861 201.582 134.541 199.092 135.196 196.575C135.54 195.253 135.7 194.358 135.634 193.916C135.583 193.566 135.451 193.228 135.117 192.916C134.672 192.5 134.162 192.222 133.6 192.109C133.312 192.052 133.006 191.992 132.734 191.927C132.786 191.68 132.853 191.46 132.919 191.226C136.385 191.996 139.799 192.78 143.166 193.537C143.097 193.796 143.045 194.029 142.995 194.25C142.722 194.185 142.434 194.105 142.161 194.041C141.601 193.91 141.069 193.973 140.471 194.13C140.084 194.231 139.754 194.476 139.496 194.868C139.261 195.227 138.967 196.087 138.641 197.319C137.15 202.96 135.637 208.679 134.138 214.466C133.778 215.853 133.592 216.762 133.652 217.282C133.693 217.631 133.849 217.933 134.199 218.254C134.655 218.673 135.182 218.919 135.772 219.033C136.058 219.088 136.345 219.15 136.634 219.188C136.583 219.422 136.499 219.669 136.447 219.929C132.873 219.318 129.267 218.721 125.611 218.085C125.662 217.812 125.746 217.566 125.796 217.332C126.099 217.384 126.419 217.423 126.738 217.475C127.76 217.643 128.629 217.466 129.273 216.878C129.696 216.492 130.114 215.462 130.544 213.803C131.259 211.051 132.04 208.327 132.829 205.551C128.876 204.809 124.954 204.04 120.903 203.257C120.104 206.049 119.308 208.84 118.524 211.67C118.129 213.099 117.941 214.059 118 214.54C118.045 214.903 118.25 215.226 118.566 215.526C119.043 215.978 119.567 216.245 120.174 216.357C120.477 216.414 120.797 216.461 121.117 216.514C121.05 216.76 120.983 217.032 120.901 217.28C117.131 216.63 113.232 215.993 109.348 215.342C109.398 215.082 109.481 214.81 109.563 214.563C109.85 214.628 110.201 214.671 110.538 214.732C111.64 214.931 112.606 214.723 113.312 214.122C113.751 213.749 114.231 212.679 114.718 211.006C116.467 204.992 118.185 199.087 119.865 193.272C120.267 191.883 120.464 190.962 120.425 190.507C120.393 190.144 120.179 189.828 119.872 189.519C119.413 189.061 118.85 188.771 118.238 188.66C117.918 188.602 117.595 188.529 117.307 188.438C117.373 188.191 117.44 187.957 117.538 187.724C121.266 188.548 124.879 189.371 128.539 190.182C128.44 190.428 128.373 190.674 128.306 190.895C128.001 190.842 127.691 190.795 127.407 190.725C126.793 190.574 126.2 190.591 125.587 190.774C125.119 190.915 124.763 191.136 124.501 191.538C124.255 191.915 123.928 192.759 123.555 194.069C122.84 196.587 122.07 199.156 121.321 201.765V201.765ZM166.475 208.297C163.61 208.864 160.73 209.434 157.802 210.002C157.392 211.453 156.973 212.916 156.553 214.369C156.239 215.456 156.122 216.248 156.158 216.74C156.186 217.142 156.414 217.432 156.765 217.66C157.11 217.885 157.863 217.946 159.003 217.778C159.015 218.01 159.041 218.27 159.085 218.477C156.612 219.047 154.171 219.591 151.699 220.11C151.687 219.877 151.675 219.63 151.632 219.371C152.614 218.982 153.216 218.569 153.475 218.205C154.003 217.467 154.554 216.092 155.132 214.071C157.291 206.529 159.337 199.131 161.386 191.941C161.548 191.903 161.757 191.89 161.951 191.852C165.073 198.243 168.195 204.635 171.355 210.941C172.117 212.46 172.791 213.428 173.312 213.803C173.815 214.167 174.517 214.322 175.385 214.206C175.427 214.439 175.438 214.646 175.45 214.841C172.683 215.487 169.82 216.108 166.958 216.742C166.948 216.496 166.936 216.288 166.909 216.043C167.762 215.822 168.306 215.507 168.592 215.149C168.864 214.808 169.047 214.449 168.999 214.036C168.939 213.491 168.661 212.726 168.122 211.613C167.586 210.512 167.013 209.41 166.475 208.297V208.297ZM165.907 207.039C164.35 203.916 162.823 200.793 161.276 197.668C160.244 201.257 159.213 204.871 158.215 208.525C160.788 208.047 163.363 207.556 165.907 207.039ZM204.068 198.726C202.675 199.693 201.267 200.675 199.827 201.63C196.635 199.753 193.392 197.847 190.099 195.916C189.69 196.226 189.345 196.457 189.069 196.626C188.987 196.676 188.853 196.776 188.725 196.846C188.593 196.919 188.465 197.001 188.318 197.091C189.184 199.072 190.062 201.04 190.898 203.019C191.455 204.341 191.924 205.055 192.301 205.22C192.781 205.431 193.367 205.328 193.977 204.911C194.216 204.747 194.434 204.601 194.648 204.432C194.739 204.64 194.83 204.821 194.905 205.002C192.488 206.656 190.056 208.336 187.561 210.017C187.469 209.862 187.394 209.655 187.318 209.461C187.513 209.332 187.721 209.155 187.939 209.008C188.698 208.496 189.13 207.858 189.189 207.08C189.225 206.629 188.978 205.84 188.465 204.661C186.534 200.222 184.608 195.753 182.67 191.286C182.108 189.99 181.627 189.259 181.225 189.07C180.719 188.831 180.1 188.922 179.401 189.339C179.17 189.477 178.96 189.623 178.716 189.74C178.654 189.584 178.563 189.364 178.487 189.169C180.674 187.866 182.796 186.608 184.955 185.323C186.783 184.234 188.191 183.588 189.177 183.389C190.166 183.19 191.132 183.335 192.101 183.808C193.042 184.269 193.761 185.092 194.244 186.232C194.777 187.486 194.907 188.731 194.642 190.075C194.387 191.368 193.657 192.686 192.385 193.951C194.396 195.144 196.344 196.345 198.286 197.504C199.648 198.315 200.679 198.735 201.4 198.787C202.121 198.839 202.93 198.66 203.842 198.195C203.933 198.389 204.009 198.57 204.068 198.726V198.726ZM187.908 196.146C188.071 196.029 188.201 195.925 188.332 195.849C188.446 195.783 188.54 195.726 188.611 195.681C190.224 194.641 191.289 193.439 191.741 192.114C192.211 190.737 192.138 189.434 191.585 188.155C191.029 186.87 190.254 186.07 189.249 185.68C188.243 185.29 187.187 185.435 186.081 186.088C185.569 186.39 184.951 186.863 184.176 187.574C185.395 190.448 186.644 193.298 187.908 196.146V196.146ZM218.805 182.334C213.952 180.23 208.965 178.1 203.864 175.917C206.771 179.22 209.638 182.488 212.478 185.733C213.252 186.617 213.807 187.074 214.144 187.08C214.612 187.089 215.068 186.781 215.493 186.177C215.623 185.994 215.746 185.829 215.88 185.635C215.973 185.778 216.081 185.919 216.207 186.024C214.958 187.844 213.679 189.65 212.416 191.484C212.292 191.355 212.183 191.251 212.058 191.109C212.192 190.916 212.324 190.746 212.461 190.54C212.914 189.867 213.069 189.21 212.941 188.552C212.86 188.137 212.478 187.551 211.771 186.74C209.004 183.563 206.159 180.368 203.313 177.118C202.721 176.443 202.24 176.057 201.862 175.9C201.616 175.796 201.317 175.827 200.956 175.962C200.599 176.097 200.167 176.478 199.697 177.11C199.572 176.981 199.448 176.839 199.322 176.683C200.443 175.249 201.565 173.804 202.654 172.397C207.426 174.426 212.097 176.465 216.669 178.414C214.676 172.917 212.708 167.445 210.77 161.946C211.78 160.618 212.776 159.315 213.805 158.013C213.913 158.155 214.039 158.299 214.149 158.415C214.013 158.595 213.89 158.733 213.761 158.892C213.284 159.48 213.15 160.094 213.269 160.688C213.348 161.077 213.735 161.676 214.429 162.499C217.077 165.64 219.722 168.793 222.336 171.85C223.086 172.728 223.618 173.153 223.94 173.171C224.344 173.194 224.766 172.948 225.163 172.386C225.258 172.251 225.383 172.064 225.485 171.897C225.593 172.025 225.719 172.155 225.812 172.285C224.422 174.284 222.999 176.308 221.576 178.347C221.467 178.243 221.359 178.113 221.234 177.971C221.369 177.79 221.489 177.624 221.605 177.455C222.046 176.823 222.181 176.215 222.052 175.621C221.971 175.245 221.584 174.651 220.914 173.874C218.187 170.715 215.473 167.491 212.725 164.266C214.825 170.165 216.936 176.063 219.074 181.946C218.989 182.101 218.889 182.204 218.805 182.334V182.334ZM228.235 147.674C227.612 149.815 227.036 151.971 226.429 154.138C227.034 154.98 227.683 155.826 228.308 156.637C228.77 157.236 229.152 157.63 229.42 157.79C229.629 157.916 229.854 157.895 230.086 157.754C230.318 157.612 230.561 157.136 230.815 156.349C230.958 156.427 231.069 156.504 231.213 156.582C230.73 158.35 230.232 160.13 229.75 161.937C229.623 161.872 229.512 161.794 229.368 161.716C229.475 160.929 229.439 160.376 229.343 160.089C229.13 159.459 228.591 158.595 227.714 157.462C224.376 153.157 221.019 148.81 217.617 144.366C217.653 144.237 217.689 144.095 217.744 143.94C222.344 144.461 226.798 144.941 231.169 145.437C232.206 145.555 232.91 145.53 233.287 145.329C233.656 145.132 233.942 144.699 234.159 144.067C234.27 144.157 234.381 144.223 234.525 144.301C233.964 146.429 233.37 148.557 232.776 150.713C232.665 150.634 232.521 150.582 232.411 150.478C232.564 149.807 232.571 149.303 232.479 148.968C232.397 148.668 232.246 148.425 232.032 148.281C231.738 148.087 231.23 147.962 230.501 147.901C229.756 147.841 228.996 147.753 228.235 147.674ZM227.363 147.529C225.191 147.327 223.008 147.087 220.837 146.859C222.457 149.035 224.124 151.185 225.743 153.297C226.294 151.362 226.844 149.451 227.363 147.529ZM220.12 115.457C221.781 115.698 223.425 115.925 225.054 116.141C225.066 116.283 225.044 116.413 225.073 116.554C223.644 116.742 222.609 117.302 221.996 118.154C221.377 119.015 221.091 120.138 221.153 121.549C221.205 122.737 221.517 123.851 222.057 124.938C222.575 125.976 223.412 126.875 224.533 127.637C225.63 128.382 226.955 128.865 228.513 129.141C229.809 129.369 230.908 129.332 231.812 128.987C232.711 128.644 233.379 127.999 233.819 127.085C234.259 126.171 234.421 125.074 234.341 123.769C234.276 122.685 234.04 121.662 233.613 120.744C233.173 119.798 232.375 118.711 231.176 117.465C231.228 117.348 231.297 117.232 231.349 117.117C232.637 118.234 233.565 119.407 234.203 120.683C234.834 121.944 235.22 123.346 235.315 124.897C235.49 127.764 234.768 129.829 233.125 131.124C231.903 132.088 230.423 132.443 228.641 132.125C227.231 131.873 225.863 131.263 224.611 130.247C223.369 129.237 222.343 127.959 221.618 126.422C220.89 124.878 220.477 123.289 220.399 121.609C220.341 120.343 220.555 119.106 221.021 117.968C221.158 117.636 221.225 117.401 221.224 117.258C221.223 116.987 221.118 116.796 220.967 116.585C220.774 116.316 220.475 116.117 220.137 115.934C220.125 115.792 220.146 115.637 220.12 115.457V115.457ZM216.315 97.0441C215.669 95.0368 215.04 92.9905 214.444 90.9696C214.543 90.9576 214.659 90.9325 214.774 90.9076C214.819 91.0501 214.85 91.1284 214.896 91.2444C214.988 91.4776 215.143 91.7637 215.443 92.1916C215.726 92.5948 216.081 92.967 216.478 93.2838C216.883 93.6054 217.473 93.9554 218.269 94.3938C220.414 95.5772 222.549 96.7209 224.631 97.8578C225.719 97.7089 226.809 97.549 227.865 97.3993C228.64 97.2886 229.096 97.1128 229.212 96.8645C229.379 96.507 229.318 96.0137 229.115 95.3274C229.066 95.16 229.013 94.9778 228.969 94.7838C229.084 94.7718 229.183 94.7732 229.299 94.7469C230.041 97.1144 230.783 99.4705 231.556 101.813C231.425 101.838 231.309 101.863 231.195 101.875C231.134 101.694 231.069 101.49 231.001 101.28C230.772 100.57 230.486 100.071 230.065 99.8273C229.81 99.6803 229.314 99.6735 228.606 99.7801C227.599 99.9335 226.577 100.091 225.554 100.24C224.248 102.08 222.877 103.932 221.521 105.824C221.041 106.494 220.752 106.96 220.642 107.189C220.542 107.398 220.483 107.848 220.436 108.519C220.424 108.701 220.438 108.971 220.559 109.295C220.428 109.308 220.295 109.345 220.196 109.37C219.406 106.898 218.615 104.399 217.839 101.9C217.971 101.862 218.071 101.837 218.203 101.811C218.247 101.954 218.286 102.098 218.321 102.212C218.45 102.629 218.652 102.983 218.895 103.289C219.156 103.619 219.457 103.767 219.735 103.708C219.985 103.654 220.315 103.319 220.766 102.705C221.823 101.273 222.892 99.8757 223.921 98.486C222.242 97.5717 220.514 96.6461 218.787 95.702C217.978 95.2601 217.459 95.0689 217.113 95.1108C216.947 95.1301 216.791 95.2201 216.678 95.3534C216.552 95.5028 216.504 95.6758 216.496 95.9336C216.49 96.1668 216.544 96.5285 216.694 96.9821C216.545 97.0077 216.446 97.0448 216.315 97.0441" fill="#59362D"/>
<path d="M91.6184 188.18C89.7616 190.605 87.9413 193.008 86.0384 195.421C84.7677 197.033 84.1211 198.136 84.1535 198.747C84.1977 199.593 84.7393 200.303 85.6892 200.882C86.0213 201.085 86.3305 201.299 86.6665 201.481C86.4737 201.716 86.2652 201.961 86.1196 202.17C82.418 200.006 78.7931 197.776 75.0695 195.557C75.2297 195.323 75.4224 195.063 75.6477 194.803C75.9689 195.025 76.3175 195.188 76.6436 195.391C77.7461 196.077 78.7748 196.179 79.7904 195.761C80.3808 195.518 81.23 194.691 82.3801 193.255C86.7224 187.837 90.8459 182.6 94.924 177.441C96.0719 175.989 96.6633 175.018 96.612 174.445C96.5401 173.654 96.0995 172.94 95.1848 172.336C94.8768 172.131 94.5737 171.944 94.3004 171.735C94.43 171.527 94.6088 171.333 94.7864 171.125C97.682 173.086 100.574 174.956 103.452 176.846C105.52 178.205 106.93 179.482 107.795 180.703C108.654 181.915 109.099 183.251 109.154 184.809C109.207 186.392 108.722 187.863 107.694 189.283C106.289 191.22 104.444 192.416 102.256 192.841C100.02 193.276 97.7576 192.728 95.3855 191.255C94.7767 190.877 94.1863 190.456 93.5577 189.938C92.9519 189.439 92.292 188.818 91.6184 188.18V188.18ZM92.442 187.116C93.0029 187.637 93.478 188.114 93.9331 188.471C94.3915 188.831 94.7841 189.133 95.1516 189.37C96.3875 190.164 97.798 190.328 99.4259 189.913C100.985 189.516 102.375 188.583 103.509 187.105C104.303 186.068 104.842 184.966 105.072 183.85C105.306 182.709 105.232 181.681 104.799 180.759C104.372 179.847 103.659 179.062 102.718 178.441C102.118 178.045 101.272 177.657 100.162 177.264C97.6336 180.516 95.0925 183.796 92.442 187.116V187.116ZM123.203 200.56C127.223 201.37 131.161 202.152 135.099 202.909C135.752 200.385 136.427 197.886 137.079 195.374C137.42 194.055 137.58 193.162 137.511 192.707C137.461 192.372 137.33 192.016 136.993 191.709C136.551 191.304 136.038 191.016 135.475 190.902C135.188 190.845 134.882 190.784 134.609 190.72C134.661 190.486 134.727 190.253 134.794 190.02C138.257 190.793 141.672 191.589 145.053 192.347C144.985 192.594 144.934 192.827 144.883 193.058C144.61 192.994 144.321 192.919 144.05 192.851C143.489 192.71 142.943 192.773 142.346 192.937C141.959 193.043 141.63 193.282 141.373 193.674C141.137 194.032 140.845 194.89 140.523 196.119C139.043 201.762 137.54 207.482 136.053 213.285C135.695 214.681 135.511 215.59 135.572 216.107C135.613 216.458 135.774 216.767 136.121 217.078C136.581 217.492 137.104 217.755 137.695 217.868C137.982 217.924 138.269 217.973 138.557 218.012C138.506 218.258 138.423 218.491 138.372 218.762C134.78 218.154 131.173 217.545 127.517 216.909C127.568 216.637 127.65 216.391 127.701 216.157C128.004 216.222 128.323 216.264 128.643 216.313C129.664 216.471 130.526 216.296 131.177 215.705C131.609 215.312 132.032 214.278 132.459 212.622C133.17 209.861 133.945 207.13 134.729 204.372C130.76 203.616 126.839 202.847 122.789 202.064C121.994 204.85 121.185 207.638 120.406 210.476C120.011 211.916 119.826 212.875 119.885 213.354C119.93 213.718 120.134 214.056 120.454 214.353C120.928 214.796 121.47 215.071 122.077 215.184C122.381 215.24 122.701 215.301 123.02 215.339C122.955 215.586 122.888 215.858 122.805 216.104C119.019 215.456 115.12 214.818 111.221 214.168C111.27 213.909 111.352 213.636 111.434 213.377C111.721 213.455 112.072 213.502 112.409 213.559C113.527 213.749 114.48 213.554 115.199 212.95C115.639 212.581 116.117 211.484 116.6 209.812C118.341 203.793 120.05 197.871 121.738 192.051C122.137 190.678 122.334 189.746 122.293 189.291C122.261 188.929 122.046 188.612 121.739 188.305C121.281 187.846 120.702 187.556 120.09 187.444C119.77 187.386 119.448 187.313 119.158 187.222C119.225 186.976 119.292 186.742 119.39 186.509C123.13 187.336 126.742 188.161 130.4 188.973C130.302 189.22 130.235 189.466 130.168 189.698C129.862 189.646 129.555 189.59 129.269 189.515C128.657 189.355 128.081 189.384 127.452 189.576C126.985 189.718 126.629 189.924 126.367 190.325C126.122 190.7 125.796 191.556 125.427 192.864C124.717 195.378 123.933 197.955 123.203 200.56V200.56ZM168.367 207.124C165.521 207.69 162.627 208.256 159.702 208.81C159.294 210.27 158.881 211.742 158.464 213.192C158.153 214.275 158.038 215.078 158.074 215.569C158.104 215.97 158.338 216.263 158.683 216.487C159.035 216.716 159.783 216.785 160.922 216.604C160.934 216.85 160.961 217.095 161.005 217.315C158.534 217.884 156.095 218.426 153.624 218.944C153.611 218.71 153.599 218.466 153.555 218.207C154.536 217.819 155.13 217.403 155.396 217.03C155.914 216.303 156.469 214.923 157.045 212.893C159.182 205.344 161.208 197.953 163.238 190.758C163.4 190.733 163.609 190.72 163.803 190.682C166.938 197.058 170.08 203.46 173.254 209.763C174.023 211.289 174.7 212.252 175.218 212.631C175.726 213.001 176.425 213.148 177.291 213.044C177.335 213.264 177.347 213.484 177.359 213.665C174.594 214.309 171.734 214.94 168.875 215.572C168.862 215.327 168.85 215.12 168.823 214.874C169.675 214.656 170.225 214.333 170.503 213.985C170.781 213.636 170.956 213.274 170.907 212.861C170.845 212.318 170.566 211.542 170.022 210.432C169.483 209.332 168.909 208.235 168.367 207.124V207.124ZM167.797 205.857C166.247 202.743 164.697 199.613 163.144 196.483C162.121 200.075 161.1 203.692 160.11 207.348C162.682 206.86 165.271 206.371 167.797 205.857ZM205.847 197.564C204.458 198.54 203.071 199.518 201.619 200.481C198.438 198.595 195.206 196.695 191.91 194.755C191.501 195.065 191.157 195.294 190.882 195.461C190.8 195.512 190.667 195.611 190.539 195.681C190.407 195.753 190.28 195.836 190.133 195.926C191.005 197.913 191.89 199.888 192.732 201.862C193.293 203.178 193.764 203.89 194.142 204.054C194.622 204.264 195.193 204.165 195.816 203.747C196.056 203.586 196.272 203.438 196.484 203.27C196.576 203.477 196.669 203.658 196.745 203.838C194.333 205.498 191.908 207.173 189.419 208.846C189.327 208.692 189.25 208.484 189.175 208.291C189.37 208.15 189.576 207.987 189.794 207.84C190.553 207.33 190.98 206.694 191.039 205.908C191.071 205.47 190.818 204.672 190.305 203.496C188.373 199.059 186.425 194.587 184.487 190.122C183.925 188.827 183.436 188.103 183.037 187.911C182.544 187.675 181.911 187.762 181.214 188.178C180.984 188.316 180.775 188.461 180.53 188.59C180.47 188.422 180.377 188.202 180.301 188.009C182.498 186.711 184.594 185.444 186.734 184.18C188.571 183.094 189.96 182.441 190.945 182.245C191.933 182.046 192.897 182.192 193.866 182.665C194.809 183.126 195.506 183.961 196 185.095C196.546 186.348 196.686 187.598 196.428 188.924C196.175 190.227 195.436 191.539 194.186 192.8C196.2 193.99 198.135 195.189 200.08 196.343C201.444 197.153 202.475 197.572 203.197 197.624C203.901 197.676 204.709 197.51 205.603 197.036C205.694 197.242 205.787 197.423 205.847 197.564V197.564ZM189.719 194.983C189.883 194.867 190.014 194.763 190.144 194.687C190.257 194.622 190.35 194.565 190.421 194.52C192.029 193.485 193.085 192.286 193.536 190.955C193.998 189.593 193.925 188.284 193.367 187.009C192.807 185.728 192.034 184.918 191.024 184.528C190.023 184.138 188.982 184.285 187.877 184.945C187.369 185.247 186.734 185.715 185.98 186.422C187.206 189.289 188.464 192.143 189.719 194.983ZM220.455 181.224C215.615 179.125 210.643 176.997 205.555 174.816C208.455 178.11 211.33 181.37 214.166 184.604C214.941 185.486 215.499 185.954 215.836 185.959C216.302 185.969 216.758 185.651 217.18 185.063C217.31 184.88 217.431 184.702 217.548 184.51C217.641 184.652 217.75 184.806 217.876 184.91C216.653 186.721 215.382 188.533 214.128 190.357C214.003 190.228 213.893 190.112 213.768 189.971C213.902 189.777 214.034 189.622 214.169 189.418C214.619 188.736 214.77 188.08 214.639 187.424C214.557 187.011 214.179 186.408 213.48 185.605C210.71 182.432 207.865 179.252 205.009 176.012C204.415 175.338 203.951 174.95 203.572 174.797C203.312 174.691 203.011 174.72 202.651 174.857C202.311 174.988 201.882 175.37 201.415 176C201.289 175.87 201.163 175.728 201.039 175.573C202.152 174.147 203.252 172.708 204.35 171.307C209.091 173.335 213.763 175.372 218.307 177.319C216.308 171.842 214.321 166.377 212.379 160.897C213.367 159.575 214.371 158.28 215.376 156.984C215.485 157.126 215.611 157.269 215.722 157.385C215.587 157.565 215.465 157.701 215.337 157.859C214.862 158.445 214.732 159.055 214.853 159.646C214.933 160.034 215.323 160.631 216.019 161.454C218.661 164.585 221.319 167.724 223.937 170.79C224.68 171.661 225.207 172.09 225.529 172.108C225.932 172.131 226.352 171.887 226.746 171.328C226.84 171.194 226.964 171.008 227.065 170.841C227.175 170.97 227.285 171.099 227.378 171.227C226.014 173.216 224.602 175.23 223.191 177.257C223.081 177.154 222.972 177.025 222.847 176.884C222.981 176.704 223.099 176.538 223.216 176.37C223.654 175.742 223.795 175.139 223.654 174.545C223.565 174.172 223.186 173.575 222.526 172.805C219.809 169.639 217.082 166.427 214.325 163.21C216.446 169.088 218.563 174.978 220.723 180.839C220.638 180.993 220.54 181.096 220.455 181.224V181.224ZM229.684 146.717C229.088 148.848 228.524 150.992 227.912 153.149C228.535 153.988 229.17 154.831 229.798 155.628C230.278 156.238 230.646 156.631 230.913 156.79C231.123 156.916 231.348 156.896 231.578 156.755C231.809 156.615 232.033 156.141 232.284 155.345C232.426 155.422 232.537 155.501 232.68 155.579C232.207 157.35 231.735 159.122 231.262 160.919C231.134 160.854 231.023 160.776 230.88 160.7C230.984 159.915 230.944 159.364 230.846 159.078C230.631 158.45 230.087 157.592 229.208 156.46C225.873 152.17 222.521 147.833 219.107 143.401C219.143 143.272 219.179 143.13 219.232 142.976C223.808 143.505 228.239 143.995 232.587 144.497C233.637 144.618 234.324 144.592 234.698 144.393C235.065 144.198 235.333 143.767 235.547 143.138C235.657 143.229 235.769 143.294 235.914 143.372C235.363 145.49 234.798 147.607 234.214 149.75C234.103 149.672 233.958 149.62 233.849 149.517C233.998 148.85 234.003 148.347 233.91 148.014C233.827 147.715 233.678 147.469 233.476 147.329C233.185 147.131 232.658 147.009 231.947 146.948C231.203 146.884 230.444 146.798 229.684 146.717V146.717ZM228.83 146.57C226.663 146.365 224.497 146.121 222.315 145.89C223.941 148.06 225.615 150.204 227.239 152.31C227.78 150.384 228.305 148.483 228.83 146.57ZM221.48 114.655C223.121 114.9 224.761 115.132 226.385 115.351C226.398 115.492 226.378 115.621 226.407 115.75C224.983 115.944 223.969 116.487 223.363 117.335C222.75 118.188 222.469 119.309 222.536 120.711C222.595 121.895 222.901 123.002 223.453 124.076C223.983 125.107 224.796 126.008 225.918 126.771C227.015 127.517 228.337 127.996 229.878 128.278C231.186 128.518 232.266 128.471 233.151 128.135C234.058 127.789 234.709 127.156 235.143 126.247C235.577 125.337 235.725 124.246 235.648 122.96C235.584 121.878 235.338 120.861 234.907 119.945C234.465 119.003 233.664 117.931 232.477 116.674C232.531 116.559 232.598 116.456 232.651 116.34C233.923 117.444 234.861 118.611 235.496 119.885C236.121 121.14 236.505 122.54 236.608 124.085C236.797 126.926 236.087 128.98 234.47 130.252C233.255 131.209 231.795 131.57 230.019 131.25C228.609 130.996 227.264 130.369 226.006 129.357C224.767 128.357 223.733 127.095 223.006 125.565C222.271 124.022 221.871 122.443 221.785 120.77C221.722 119.508 221.926 118.277 222.391 117.145C222.521 116.828 222.591 116.582 222.589 116.439C222.586 116.182 222.482 115.992 222.33 115.781C222.137 115.513 221.838 115.314 221.5 115.131C221.488 114.99 221.507 114.835 221.48 114.655V114.655ZM217.626 96.3565C216.975 94.3549 216.357 92.3265 215.737 90.3256C215.836 90.3136 215.968 90.2885 216.083 90.2644C216.129 90.4068 216.159 90.4835 216.205 90.6003C216.297 90.8335 216.448 91.1218 216.737 91.5464C217.016 91.9518 217.372 92.3117 217.773 92.6246C218.174 92.9368 218.766 93.2997 219.561 93.7363C221.703 94.912 223.804 96.0549 225.899 97.1952C226.967 97.0505 228.052 96.8962 229.103 96.7496C229.859 96.6438 230.329 96.4692 230.443 96.2224C230.608 95.8668 230.544 95.3765 230.34 94.6913C230.29 94.5246 230.235 94.3425 230.191 94.1497C230.307 94.1377 230.404 94.139 230.52 94.1138C231.255 96.4749 232.02 98.8224 232.786 101.144C232.655 101.169 232.54 101.206 232.425 101.218C232.365 101.025 232.294 100.834 232.23 100.624C232.009 99.9058 231.711 99.419 231.29 99.1749C231.035 99.0272 230.558 99.0185 229.853 99.1236C228.849 99.2725 227.832 99.4259 226.814 99.5711C225.52 101.386 224.177 103.226 222.836 105.092C222.359 105.757 222.074 106.22 221.966 106.448C221.866 106.656 221.81 107.104 221.765 107.772C221.753 107.953 221.771 108.21 221.891 108.546C221.761 108.558 221.629 108.595 221.531 108.62C220.732 106.155 219.933 103.663 219.166 101.198C219.297 101.16 219.396 101.136 219.528 101.111C219.573 101.253 219.615 101.383 219.648 101.499C219.765 101.912 219.965 102.267 220.207 102.572C220.47 102.901 220.768 103.04 221.062 102.979C221.309 102.928 221.63 102.6 222.071 101.997C223.107 100.58 224.175 99.1856 225.178 97.8189C223.518 96.902 221.804 95.9809 220.067 95.0288C219.272 94.5922 218.758 94.3928 218.413 94.4336C218.248 94.4524 218.094 94.5409 217.981 94.6728C217.857 94.8217 217.809 94.9933 217.802 95.2514C217.797 95.483 217.852 95.8437 218.003 96.2953C217.855 96.3196 217.758 96.3573 217.626 96.3565" fill="url(#paint4_linear)"/>
<path d="M37.312 106.142C38.2697 108.635 39.244 111.096 40.2415 113.561C35.9917 118.203 31.6744 122.977 27.238 127.865C27.5313 128.611 27.8049 129.178 27.9749 129.663C28.0453 129.862 28.1057 130.061 28.1852 130.267C28.2717 130.49 28.3295 130.713 28.4277 130.965C32.0089 129.91 35.4818 128.878 38.976 127.842C41.2074 127.181 42.4596 126.569 42.844 126.053C43.4113 125.289 43.5168 124.367 43.0599 123.312C42.8936 122.928 42.7249 122.594 42.5889 122.213C42.912 122.134 43.2344 122.043 43.5353 121.954C45.1064 126 46.7456 130.058 48.3636 134.134C48.0416 134.23 47.7226 134.339 47.4013 134.431C47.2686 134.093 47.1734 133.713 47.0222 133.355C46.5128 132.15 45.6681 131.427 44.5542 131.208C43.8902 131.077 42.5889 131.307 40.5544 131.934C32.8064 134.317 24.6743 136.803 16.322 139.338C13.7988 140.103 12.3565 140.818 11.9169 141.418C11.2567 142.317 11.1043 143.317 11.5496 144.469C11.7023 144.864 11.8519 145.271 11.9664 145.654C11.6055 145.789 11.2177 145.884 10.8519 145.964C9.44172 142.237 8.05159 138.432 6.69853 134.641C5.52946 131.364 4.92399 128.851 4.98559 127.119C5.04572 125.416 5.66626 123.792 6.93172 122.284C8.19745 120.776 9.97345 119.771 12.2801 119.181C14.6968 118.562 16.9652 118.623 19.1565 119.354C21.2868 120.066 23.2165 121.54 24.8391 123.838C27.6469 120.861 30.3531 117.919 33.0407 115.07C34.8896 113.108 35.9853 111.572 36.3807 110.453C36.7911 109.289 36.7587 107.952 36.3403 106.371C36.7084 106.295 37.0096 106.212 37.312 106.142V106.142ZM26.6903 131.472C26.5433 131.182 26.4477 130.939 26.3977 130.735C26.352 130.545 26.2428 130.362 26.2043 130.255C25.1627 127.424 23.5412 125.511 21.4568 124.525C19.3075 123.509 17.0548 123.333 14.5399 124.008C12.0409 124.681 10.2225 125.847 9.12199 127.451C8.00852 129.074 7.75639 130.919 8.49799 132.875C8.82745 133.742 9.50825 134.867 10.4232 136.294C15.9957 134.654 21.3517 133.042 26.6903 131.472V131.472ZM37.7379 90.0851C38.0489 90.0744 38.3588 90.0647 38.6688 90.0416C39.1632 94.0116 39.6574 97.9816 40.179 101.99C39.8706 102.017 39.5165 102.035 39.2062 102.049C39.143 101.723 39.12 101.392 39.0823 101.048C38.9527 99.8806 38.4371 99.052 37.5267 98.5769C36.9128 98.2579 35.494 98.1827 33.3029 98.2995C25.4023 98.7228 17.1444 99.168 8.61852 99.6C6.51479 99.7067 5.17919 99.8944 4.53892 100.118C4.06945 100.281 3.68173 100.611 3.34906 101.104C2.89333 101.777 2.75679 102.451 2.79079 103.196C2.80679 103.554 2.83772 103.924 2.88079 104.264C2.50705 104.301 2.15292 104.319 1.82025 104.333C1.40345 99.9972 1.05493 95.7 0.68866 91.4163C1.06893 91.4296 1.44652 91.4123 1.82332 91.3982C1.80066 91.7466 1.85199 92.1143 1.89212 92.4696C2.02812 93.6635 2.58372 94.5415 3.58265 95.0563C4.25278 95.4017 5.77933 95.5054 8.19746 95.3976C16.6881 95.0174 24.9373 94.6832 32.8499 94.3117C34.7097 94.2236 35.8757 94.0929 36.4509 93.8771C36.8765 93.7176 37.2144 93.4039 37.4503 92.9711C37.776 92.3747 37.9567 91.7276 37.8623 91.0859C37.8116 90.7447 37.7768 90.3999 37.7379 90.0851ZM44.1993 69.7648C33.9448 70.7796 23.1588 71.8187 11.8236 72.9279C20.016 74.7016 28.0226 76.415 35.7982 78.1154C37.8637 78.567 39.2191 78.692 39.8567 78.4623C40.6485 78.1751 41.2291 77.4959 41.4876 76.4996C41.5609 76.2157 41.616 75.9187 41.6886 75.6084C42.0092 75.6707 42.2628 75.7388 42.5852 75.8151C41.8123 78.7567 41.0443 81.7187 40.2769 84.7008C39.9337 84.6297 39.6386 84.581 39.3389 84.505C39.4125 84.2056 39.4969 83.9003 39.5816 83.5911C39.8801 82.4984 39.622 81.6227 38.9001 80.9908C38.4432 80.5916 37.2583 80.1804 35.3579 79.7768C27.7025 78.1498 19.8629 76.5139 11.8111 74.7754C10.1337 74.413 8.89212 74.284 8.03265 74.3812C7.46079 74.4458 6.91586 74.7002 6.38373 75.1072C5.81719 75.5419 5.35186 76.2996 4.99959 77.3964C4.61479 77.3492 4.24706 77.2744 3.92506 77.1924C4.78493 74.6423 5.62319 72.0991 6.53252 69.5837C17.24 68.5936 27.4836 67.6623 37.3278 66.7533C29.308 61.7276 21.1352 56.5891 12.7655 51.3525C13.5077 49.0799 14.2931 46.808 15.0607 44.5549C15.3857 44.6435 15.7547 44.7292 16.0771 44.8022C15.9792 45.091 15.8733 45.3635 15.7796 45.6401C15.4323 46.6621 15.6337 47.508 16.4085 48.1486C16.9071 48.561 18.1312 49.0179 20.0928 49.5288C27.6057 51.4836 34.9021 53.4032 42.062 55.2451C44.0425 55.7545 45.334 55.8846 45.8948 55.7054C46.6885 55.4507 47.1716 54.9147 47.4056 54.0023C47.4736 53.7392 47.5189 53.4736 47.5756 53.2083C47.8768 53.2922 48.1759 53.3632 48.454 53.4479C47.6059 56.7032 46.7381 59.9823 45.8767 63.2961C45.6 63.2277 45.2769 63.1488 45.0007 63.0782C45.0788 62.8106 45.1533 62.5217 45.2304 62.2327C45.5048 61.2113 45.2754 60.4328 44.5516 59.8134C44.1006 59.429 42.9987 59.0091 41.1535 58.5419C33.7713 56.6744 26.2236 54.7548 18.4661 52.7744C27.2565 58.3602 35.8908 63.8186 44.3452 69.1439C44.284 69.371 44.2401 69.5532 44.1993 69.7648V69.7648ZM62.7794 39.9859C53.6021 37.547 44.1438 35.0458 34.309 32.4439C40.348 36.1924 46.2872 39.9039 52.1704 43.5428C53.7919 44.5459 54.8818 45.0411 55.4888 45.063C56.3192 45.091 57.0626 44.7655 57.6749 44.1223C57.8544 43.9344 58.0755 43.7406 58.2509 43.5379C58.4708 43.6827 58.6916 43.8415 58.9532 43.9688C57.0468 45.9127 55.1676 47.9014 53.2888 49.8838C53.0476 49.7416 52.7823 49.5856 52.5631 49.4412C52.7411 49.2496 52.9819 49.0508 53.1811 48.835C53.8485 48.1123 54.0045 47.3869 53.6508 46.6556C53.4369 46.2123 52.5717 45.5509 51.0993 44.6435C45.3113 41.0816 39.4743 37.4423 33.5361 33.7883C32.2776 33.0139 31.2999 32.5592 30.5875 32.3906C30.0545 32.2659 29.4973 32.2696 28.9097 32.4012C28.3008 32.5384 27.6137 32.9548 26.8717 33.6394C26.5849 33.4916 26.3169 33.3143 26.0735 33.1643C27.8241 31.5836 29.5552 30.0379 31.3573 28.5079C40.5521 30.9786 49.4835 33.3586 58.1348 35.6558C53.3828 29.5903 48.6724 23.5008 43.9991 17.4135C45.532 16.0355 47.0653 14.6623 48.5805 13.321C48.824 13.4722 49.0662 13.623 49.2866 13.7614C49.1066 13.9586 48.9004 14.1248 48.7216 14.2874C48.0545 14.8944 47.8833 15.5502 48.2412 16.2022C48.4616 16.605 49.2681 17.2914 50.685 18.2151C56.1373 21.7708 61.5145 25.2742 66.8168 28.715C68.2976 29.6766 69.3449 30.1588 69.9077 30.1961C70.6541 30.2464 71.3119 29.9959 71.8916 29.4059C72.0484 29.2468 72.2086 29.0699 72.3685 28.9131C72.5862 29.045 72.8275 29.1885 73.0236 29.3212C70.9973 31.4268 68.9526 33.5687 66.8905 35.7347C66.6713 35.5888 66.432 35.4456 66.2109 35.2868C66.3908 35.1148 66.57 34.9293 66.7484 34.7441C67.3629 34.1031 67.4631 33.4542 67.112 32.7719C66.9075 32.3732 66.1293 31.7053 64.7698 30.8319C59.2297 27.2697 53.666 23.6931 48.0193 20.03C53.0782 26.5591 58.1076 33.0735 63.1575 39.597C62.9943 39.729 62.8754 39.8571 62.7794 39.9855V39.9859ZM87.1564 23.6694C87.286 23.8175 87.4628 23.9887 87.6409 24.1611C84.9294 25.4314 82.2194 26.7206 79.4434 28.0071C79.2885 27.8332 79.0889 27.6612 78.9789 27.4976C79.2117 27.3913 79.4223 27.286 79.6563 27.1794C80.4832 26.8014 80.8396 26.3075 80.7527 25.6948C80.6948 25.2927 80.1645 24.5344 79.0655 23.4051C75.1521 19.3837 71.3001 15.3184 67.3743 11.2419C66.4528 10.2864 65.7918 9.68323 65.3356 9.42083C65.02 9.23829 64.6255 9.09696 64.1481 9.04562C63.4693 8.97269 62.9212 9.06974 62.4269 9.278C62.1532 9.3936 61.9117 9.45869 61.677 9.56296C61.5228 9.39629 61.3437 9.21748 61.1437 9.03948C64.1424 7.90334 67.0776 6.78924 69.947 5.68564C70.08 5.8643 70.2569 6.02884 70.4349 6.19284C70.178 6.29564 69.9399 6.37617 69.684 6.47364C68.8899 6.77604 68.5267 7.23401 68.572 7.84107C68.6015 8.22387 69.1768 8.96241 70.2604 10.0963C74.1086 14.1248 77.9962 18.1572 81.8018 22.1476C82.6897 23.0786 83.3319 23.6791 83.7389 23.9207C84.0556 24.1074 84.4229 24.2116 84.8524 24.234C85.4816 24.2672 86.0077 24.1761 86.4537 23.9705C86.6861 23.8628 86.9005 23.7751 87.1564 23.6694V23.6694ZM79.6286 3.24216C81.6409 3.01082 83.5881 2.79576 85.5742 2.54176C92.896 6.76242 100.018 10.8517 107.039 14.8728C104.758 11.3231 102.487 7.8067 100.263 4.25884C99.5551 3.1287 98.9531 2.43136 98.5153 2.18576C97.9189 1.85429 97.1835 1.73297 96.4305 1.8263C96.1656 1.85924 95.9215 1.88257 95.7237 1.9159C95.6149 1.73977 95.5049 1.57643 95.3926 1.3875C97.7156 1.12523 100.015 0.865235 102.294 0.580168C102.404 0.768035 102.535 0.929735 102.622 1.0916C102.378 1.11347 102.157 1.14336 101.936 1.1679C101.095 1.25856 100.655 1.55829 100.607 2.05909C100.574 2.39176 100.908 3.05576 101.566 4.09323C104.824 9.22736 108.122 14.3724 111.377 19.5391C111.202 19.5739 111.049 19.6067 110.895 19.6294C103.407 15.4118 95.7861 11.0574 87.9246 6.60324C90.3905 10.5271 92.9432 14.4447 95.4085 18.3719C96.1532 19.5583 96.7578 20.284 97.1884 20.5183C97.8334 20.8683 98.5365 20.942 99.3487 20.8093C99.6117 20.7671 99.854 20.73 100.072 20.679C100.183 20.8532 100.291 21.0139 100.402 21.1869C98.0135 21.6185 95.6248 22.0514 93.1284 22.518C93.0149 22.3174 92.9069 22.1552 92.7965 21.9803C93.0369 21.9397 93.2984 21.8801 93.5608 21.8328C94.4594 21.6723 94.9784 21.3135 95.0222 20.7677C95.0514 20.4181 94.7404 19.6973 94.0494 18.6127C91.2106 14.1637 88.3638 9.69724 85.5656 5.26991C84.5118 4.69991 83.7771 4.32535 83.3024 4.14735C82.8628 3.98295 82.2558 3.83401 81.5029 3.73308C81.1162 3.68161 80.6249 3.70054 79.9634 3.79054C79.8513 3.61134 79.742 3.44696 79.6286 3.24216V3.24216ZM131.697 3.75656C132.352 5.53709 133.053 7.31416 133.732 9.1019C133.55 9.07243 133.435 9.0539 133.253 9.02483C132.373 7.6287 131.421 6.52431 130.447 5.72751C129.041 4.57631 127.403 3.8392 125.551 3.52707C123.081 3.11053 121.396 3.62841 120.539 5.12615C119.797 6.42335 119.706 8.09964 120.276 10.1394C120.747 11.8163 121.577 13.3893 122.694 14.8868C123.81 16.3824 125.087 17.5136 126.503 18.3372C127.873 19.1347 129.208 19.6471 130.412 19.8014C131.161 19.897 131.835 19.9124 132.453 19.8346C133.094 19.7548 133.656 19.5927 134.187 19.352C133.704 17.706 133.192 16.0361 132.735 14.3864C132.495 13.5191 132.256 12.9456 132.041 12.6607C131.832 12.384 131.511 12.1414 131.176 11.9588C130.841 11.7771 130.262 11.6175 129.465 11.5068C129.424 11.3476 129.382 11.1881 129.32 11.0415C131.828 11.4063 134.313 11.7835 136.774 12.1565C136.793 12.3168 136.834 12.4744 136.895 12.6199C136.783 12.6119 136.648 12.5886 136.555 12.575C135.828 12.4691 135.373 12.5991 135.237 12.985C135.137 13.2676 135.252 13.8747 135.514 14.7881C136.009 16.5157 136.523 18.2684 137.063 20.0168C136.124 20.4053 135.146 20.6532 134.174 20.7655C133.18 20.8789 131.989 20.8415 130.671 20.6699C126.83 20.168 123.544 18.7031 120.857 16.2112C118.843 14.3442 117.522 12.3329 116.942 10.1661C116.523 8.60228 116.593 7.20684 117.072 5.94524C117.635 4.46071 118.677 3.39361 120.2 2.80974C121.465 2.32361 123.051 2.25295 125.04 2.59962C125.753 2.72468 126.421 2.90681 127.025 3.09587C127.654 3.29387 128.527 3.6579 129.684 4.1847C130.254 4.44403 130.627 4.58043 130.765 4.59897C130.969 4.62843 131.107 4.58963 131.177 4.48337C131.261 4.3575 131.265 4.09589 131.171 3.67909C131.332 3.71002 131.537 3.73949 131.696 3.75656H131.697ZM159.908 13.7186C159.971 14.8699 160.035 16.0101 160.121 17.1609C159.959 17.1103 159.794 17.0464 159.631 16.9838C159.535 16.3272 159.411 15.8649 159.242 15.5351C158.978 15.0209 158.623 14.5754 158.194 14.205C157.754 13.8259 157.146 13.4952 156.444 13.1989C155.618 12.8485 154.798 12.5084 153.978 12.1856C153.953 15.8816 153.935 19.6419 153.909 23.4762C153.901 24.4244 154.008 25.0711 154.239 25.3739C154.589 25.8357 155.112 26.1959 155.816 26.4602C156.047 26.5463 156.238 26.626 156.446 26.6847C156.44 26.8302 156.434 26.9647 156.45 27.1083C153.878 26.1378 151.282 25.1512 148.638 24.1478C148.669 24.0239 148.673 23.8647 148.679 23.718C148.891 23.8144 149.096 23.915 149.314 23.9944C150.123 24.2892 150.665 24.3043 151.019 24.034C151.22 23.8803 151.328 23.3443 151.335 22.5048C151.368 18.6343 151.419 14.8759 151.463 11.1591C150.734 10.854 150.024 10.568 149.299 10.2667C148.449 9.91336 147.847 9.71802 147.53 9.68096C147.029 9.62229 146.608 9.70134 146.263 9.95907C145.928 10.21 145.695 10.6688 145.635 11.3072C145.494 11.2532 145.283 11.1655 145.118 11.1001C145.191 9.98481 145.308 8.85589 145.427 7.76429C150.343 9.79162 155.185 11.7876 159.907 13.7186H159.908ZM177.24 23.096C179.203 24.4158 180.76 26.157 181.824 28.2774C182.891 30.4034 183.164 32.3437 182.593 34.1261C182.006 35.9573 180.777 37.0371 178.863 37.3154C176.929 37.5946 174.859 37.0247 172.662 35.6055C170.445 34.1723 168.753 32.3339 167.659 30.1078C166.573 27.9012 166.404 25.8652 167.117 23.9796C167.832 22.088 169.3 21.1305 171.444 21.0959C173.298 21.0656 175.235 21.7478 177.24 23.096V23.096ZM176.802 23.5843C175.412 22.6549 174.174 22.291 173.033 22.4954C171.631 22.7475 170.54 23.8183 169.844 25.7253C169.125 27.696 169.145 29.6206 169.89 31.4559C170.449 32.8358 171.451 34.0332 172.855 34.9459C174.369 35.9306 175.797 36.2499 177.082 35.9623C178.324 35.6836 179.296 34.5703 179.925 32.6412C180.59 30.5972 180.569 28.7271 179.852 27.035C179.291 25.7107 178.268 24.5655 176.802 23.5843V23.5843ZM192.626 33.7403C193.763 34.9327 194.92 36.0979 196.055 37.2723C196.734 41.9691 197.377 46.7577 198.072 51.6243C199.558 49.9328 201.019 48.2468 202.447 46.6111C202.899 46.0922 203.075 45.6742 203.024 45.3774C202.953 44.9696 202.632 44.5183 202.158 44.0119C202.026 43.869 201.88 43.7027 201.73 43.5534C201.811 43.4786 201.846 43.3939 201.928 43.3289C203.364 44.8271 204.823 46.3208 206.28 47.7967C206.221 47.8809 206.162 47.9444 206.103 48.0208C205.932 47.8741 205.795 47.7161 205.652 47.568C205.113 47.0071 204.647 46.7475 204.245 46.743C203.977 46.7403 203.66 46.9731 203.253 47.4475C201.17 49.8712 199.045 52.354 196.855 54.9157C196.731 54.8001 196.627 54.671 196.503 54.5556C195.754 49.2171 195.037 43.9812 194.313 38.8702C192.671 40.5604 191.034 42.2707 189.352 44.0331C188.836 44.5728 188.604 45.0022 188.649 45.3143C188.71 45.7558 189.033 46.218 189.545 46.7489C189.689 46.8979 189.848 47.0713 190 47.2215C189.942 47.3099 189.862 47.3866 189.781 47.4642C188.222 45.894 186.665 44.3415 185.125 42.7575C185.206 42.6906 185.286 42.6028 185.345 42.5265C185.52 42.6883 185.676 42.8205 185.843 42.9895C186.405 43.5576 186.903 43.8743 187.351 43.8916C187.642 43.9036 188.021 43.6627 188.497 43.1675C190.402 41.1916 192.236 39.2648 194.099 37.3634C194.005 36.6951 193.888 36.2381 193.787 35.9547C193.692 35.6836 193.499 35.3111 193.196 34.8606C193.045 34.6352 192.758 34.3246 192.404 33.9554C192.485 33.8794 192.545 33.8163 192.626 33.7403V33.7403ZM206.241 51.704C206.319 51.6042 206.419 51.4904 206.498 51.3899C207.343 51.789 207.966 51.9904 208.369 51.9972C208.659 52.0025 208.888 51.8725 209.067 51.6517C209.182 51.5104 209.239 51.3816 209.202 51.2478C209.164 51.1128 209.135 50.9983 209.054 50.919C208.985 50.8516 208.88 50.7768 208.738 50.6839C208.544 50.5568 208.425 50.4385 208.321 50.3361C208.074 50.0931 207.927 49.8074 207.85 49.4963C207.768 49.1664 207.792 48.9215 207.943 48.7291C208.105 48.5235 208.315 48.465 208.591 48.5394C208.981 48.6434 209.367 48.8766 209.692 49.2258C210.101 49.6638 210.372 50.1328 210.502 50.7043C210.63 51.2659 210.574 51.7345 210.275 52.1027C209.866 52.608 209.233 52.7823 208.373 52.6405C207.802 52.5476 207.078 52.2191 206.241 51.704V51.704ZM219.369 60.4831C218.571 61.5284 217.816 62.5708 217.063 63.6276C216.96 63.5021 216.838 63.4016 216.735 63.2768C217.057 62.5539 217.228 61.8735 217.202 61.2258C217.176 60.5908 216.963 59.9199 216.597 59.1708C216.245 58.449 215.791 57.7774 215.248 57.2074C214.634 56.5652 213.999 56.1868 213.381 56.0334C212.784 55.8826 212.322 55.99 212.034 56.3479C211.83 56.6025 211.789 56.9923 211.869 57.4795C211.987 58.198 212.538 59.5635 213.543 61.5807C214.365 63.2296 214.897 64.4047 215.153 65.096C215.401 65.7654 215.497 66.4153 215.493 66.9903C215.489 67.5741 215.322 68.0527 215.051 68.4397C214.532 69.1789 213.714 69.4224 212.597 69.1968C211.438 68.9632 210.292 68.2538 209.113 67.0474C208.737 66.6638 208.389 66.2872 208.097 65.9093C207.922 65.6829 207.581 65.1916 207.086 64.4228C206.585 63.6435 206.239 63.1639 206.084 63.0096C205.914 62.8403 205.769 62.7485 205.606 62.7168C205.473 62.6899 205.281 62.7893 205.077 62.962C204.931 62.8509 204.829 62.735 204.725 62.5966C205.564 61.5202 206.403 60.4442 207.244 59.3814C207.368 59.4955 207.469 59.6129 207.595 59.7355C207.241 60.5715 207.076 61.2937 207.078 61.9167C207.079 62.5391 207.31 63.2545 207.714 64.0611C208.109 64.8484 208.642 65.6039 209.319 66.2979C210.096 67.0923 210.839 67.5663 211.522 67.7179C212.185 67.8634 212.707 67.7179 213.012 67.2972C213.191 67.0511 213.273 66.7287 213.285 66.3236C213.295 65.9093 213.188 65.4157 212.967 64.8449C212.817 64.4603 212.385 63.4939 211.646 61.9544C210.912 60.4211 210.422 59.2872 210.16 58.557C209.908 57.8483 209.8 57.2197 209.819 56.6643C209.836 56.1343 209.951 55.6714 210.247 55.2983C210.734 54.683 211.495 54.491 212.525 54.7272C213.553 54.9627 214.574 55.618 215.614 56.6866C216.254 57.3456 216.838 58.1548 217.418 59.1379C217.685 59.5903 217.878 59.8991 218.006 60.0313C218.154 60.1867 218.302 60.2915 218.46 60.3224C218.597 60.3496 218.769 60.2986 218.999 60.1588C219.123 60.2707 219.224 60.3727 219.369 60.4831" fill="#59362D"/>
<path d="M39.0619 104.814C40.0188 107.318 40.9932 109.791 41.9907 112.266C37.7413 116.86 33.424 121.584 28.9872 126.422C29.28 127.171 29.5533 127.741 29.7237 128.228C29.7944 128.428 29.8541 128.628 29.9339 128.835C30.0208 129.058 30.0787 129.281 30.1769 129.534C33.7584 128.521 37.2307 127.529 40.726 126.533C42.9563 125.898 44.2088 125.3 44.592 124.787C45.1601 124.031 45.2652 123.108 44.8083 122.05C44.6427 121.664 44.4737 121.328 44.3369 120.946C44.6608 120.871 44.984 120.782 45.2841 120.697C46.8556 124.762 48.4944 128.838 50.1128 132.933C49.7916 133.025 49.4719 133.131 49.1497 133.219C49.0179 132.88 48.9227 132.498 48.7711 132.138C48.2616 130.929 47.4176 130.195 46.3031 129.963C45.6383 129.825 44.3381 130.04 42.3036 130.642C34.5559 132.937 26.4235 135.33 18.0711 137.769C15.5468 138.505 14.1056 139.204 13.6657 139.798C13.0057 140.689 12.8539 141.688 13.2991 142.845C13.4507 143.242 13.6007 143.65 13.7156 144.034C13.3551 144.167 12.9665 144.256 12.6007 144.331C11.1908 140.589 9.8008 136.768 8.44773 132.961C7.27827 129.671 6.6732 127.151 6.7344 125.419C6.79453 123.716 7.41547 122.1 8.68013 120.608C9.94667 119.113 11.7237 118.128 14.0297 117.565C16.4456 116.974 18.714 117.061 20.9061 117.817C23.0355 118.553 24.9653 120.05 26.5887 122.367C29.3961 119.42 32.1019 116.511 34.7895 113.692C36.6388 111.753 37.7352 110.229 38.1295 109.114C38.5403 107.956 38.5075 106.618 38.0891 105.033C38.4572 104.961 38.7591 104.881 39.0619 104.814V104.814ZM28.4391 130.022C28.2921 129.73 28.1968 129.486 28.1473 129.282C28.1016 129.091 27.9916 128.907 27.9523 128.799C26.9115 125.956 25.2896 124.024 23.2071 123.015C21.0565 121.973 18.8044 121.771 16.288 122.418C13.7912 123.06 11.9721 124.208 10.8715 125.799C9.75774 127.409 9.506 129.251 10.2479 131.217C10.5763 132.088 11.2577 133.219 12.1716 134.656C17.7461 133.082 23.1017 131.531 28.4391 130.022V130.022ZM39.4871 88.762C39.7977 88.7553 40.1084 88.7486 40.418 88.729C40.9123 92.7052 41.4067 96.6808 41.9283 100.694C41.6199 100.719 41.2653 100.732 40.9555 100.742C40.8931 100.416 40.8692 100.085 40.8311 99.7408C40.7029 98.5721 40.1859 97.7372 39.2755 97.252C38.662 96.9257 37.2443 96.8336 35.0525 96.9257C27.1519 97.2576 18.8936 97.6084 10.3677 97.9425C8.2644 98.0245 6.92867 98.1968 6.28733 98.4133C5.81867 98.5717 5.4312 98.8976 5.09787 99.3854C4.6424 100.054 4.5056 100.724 4.5396 101.472C4.55667 101.829 4.588 102.2 4.63 102.54C4.25507 102.572 3.90134 102.586 3.56907 102.597C3.15187 98.2569 2.80453 93.9538 2.43787 89.6672C2.81813 89.6861 3.19534 89.6725 3.5728 89.6632C3.54947 90.0101 3.6008 90.3794 3.6416 90.7346C3.77693 91.9305 4.33294 92.8149 5.33187 93.3418C6.00307 93.6952 7.52893 93.8146 9.94666 93.7352C18.4373 93.4529 26.6861 93.2137 34.5983 92.9331C36.4589 92.8678 37.6256 92.7495 38.1997 92.5401C38.6257 92.3847 38.9636 92.0749 39.1995 91.6456C39.5248 91.0521 39.7055 90.4081 39.6111 89.7645C39.5608 89.4228 39.526 89.0777 39.4871 88.7625V88.762ZM45.9477 68.516C35.6939 69.4132 24.9075 70.329 13.5724 71.3078C21.7652 73.1757 29.7715 74.9812 37.5475 76.7708C39.6121 77.2456 40.9675 77.3865 41.6063 77.1636C42.398 76.8869 42.9789 76.2122 43.2364 75.2212C43.31 74.937 43.3648 74.641 43.4381 74.3312C43.7579 74.3969 44.0123 74.4684 44.3339 74.5481C43.5611 77.4813 42.7931 80.4346 42.0265 83.4073C41.6829 83.3328 41.3871 83.2803 41.088 83.2001C41.1617 82.902 41.246 82.5977 41.3307 82.2889C41.6285 81.2012 41.3708 80.3221 40.6492 79.681C40.1927 79.2766 39.0079 78.8529 37.1075 78.4266C29.4509 76.7118 21.6125 74.9865 13.5599 73.1549C11.8833 72.7736 10.6405 72.6295 9.78227 72.7169C9.21 72.775 8.66467 73.0231 8.1328 73.4241C7.56587 73.8519 7.10067 74.6048 6.7488 75.6978C6.36293 75.646 5.99667 75.5658 5.67387 75.4816C6.53414 72.9421 7.3724 70.4069 8.28133 67.9021C18.9892 67.0356 29.2328 66.2221 39.0777 65.4262C31.0572 60.3086 22.884 55.0756 14.5143 49.7438C15.2565 47.4784 16.0431 45.2156 16.8103 42.9713C17.1349 43.0639 17.5031 43.1534 17.8259 43.2317C17.7287 43.5181 17.6225 43.7896 17.5295 44.0658C17.1817 45.0821 17.3828 45.9306 18.1577 46.5806C18.6559 46.9983 19.88 47.4697 21.8423 48.0025C29.3553 50.045 36.6513 52.0474 43.8108 53.9724C45.7917 54.5045 47.0843 54.6493 47.6436 54.4761C48.4373 54.2311 48.9208 53.6998 49.1551 52.7909C49.2224 52.5285 49.2677 52.2631 49.3244 51.9982C49.6252 52.0859 49.9245 52.1604 50.2032 52.2481C49.3535 55.4936 48.4872 58.7629 47.6255 62.0665C47.3492 61.9948 47.0264 61.9128 46.7501 61.839C46.828 61.5722 46.9028 61.2842 46.9804 60.9969C47.2536 59.9788 47.0241 59.1972 46.3008 58.5693C45.8499 58.1797 44.7477 57.7469 42.9029 57.259C35.5197 55.3069 27.9731 53.3 20.2152 51.2302C29.0068 56.9166 37.64 62.4756 46.0948 67.8969C46.0332 68.1244 45.9889 68.3058 45.9477 68.516V68.516ZM64.5299 38.9513C55.352 36.4073 45.8925 33.7975 36.0583 31.0815C42.0976 34.9001 48.036 38.6789 53.9192 42.3858C55.5405 43.4074 56.6309 43.9157 57.238 43.9441C58.0687 43.9822 58.8117 43.6648 59.4237 43.0287C59.6036 42.8428 59.824 42.6516 60 42.4504C60.2196 42.599 60.4412 42.7596 60.7027 42.8904C58.7959 44.8119 56.916 46.778 55.0376 48.7404C54.7964 48.5948 54.5319 48.4361 54.3127 48.2886C54.4903 48.0997 54.7307 47.9036 54.9303 47.6893C55.5973 46.9753 55.7541 46.2504 55.4 45.5153C55.1857 45.0693 54.3217 44.3984 52.8484 43.4754C47.0601 39.846 41.2229 36.1394 35.2849 32.4177C34.0272 31.6293 33.0491 31.1621 32.3361 30.9868C31.8036 30.8549 31.2465 30.8514 30.6588 30.9774C30.0492 31.1078 29.3636 31.516 28.6209 32.1929C28.3337 32.0417 28.0657 31.861 27.8223 31.7084C29.5725 30.1474 31.3036 28.6213 33.1064 27.1129C42.3009 29.689 51.2323 32.1721 59.8844 34.5676C55.1328 28.4482 50.4212 22.3045 45.7483 16.165C47.2816 14.8025 48.8145 13.448 50.3297 12.1237C50.5724 12.2774 50.8159 12.4309 51.0351 12.5718C50.8559 12.7669 50.6488 12.9317 50.4711 13.0916C49.8033 13.691 49.6317 14.3445 49.9904 15.0014C50.2115 15.4065 51.0176 16.102 52.4345 17.0424C57.8861 20.6597 63.2633 24.2253 68.566 27.7274C70.0468 28.7056 71.0941 29.1992 71.6572 29.2449C72.4025 29.3032 73.0609 29.0601 73.6408 28.4773C73.7972 28.3193 73.9571 28.1428 74.1177 27.9887C74.3351 28.1236 74.5769 28.2701 74.7716 28.4044C72.7453 30.4869 70.7021 32.6053 68.64 34.7476C68.4205 34.5993 68.1808 34.4535 67.9601 34.2921C68.1396 34.1224 68.3188 33.9394 68.4976 33.7554C69.1121 33.122 69.2115 32.4749 68.8608 31.7874C68.6552 31.3872 67.8781 30.7102 66.5189 29.8205C60.9797 26.1951 55.4163 22.5544 49.7685 18.8252C54.8277 25.414 59.8568 31.9859 64.9059 38.5672C64.7433 38.6972 64.6247 38.8249 64.5299 38.9514V38.9513ZM88.9052 22.9149C89.0348 23.0646 89.2128 23.2377 89.3897 23.4131C86.6779 24.652 83.9683 25.9095 81.1927 27.1655C81.0373 26.9893 80.8373 26.8146 80.7277 26.6494C80.9609 26.5464 81.1725 26.4436 81.4051 26.3396C82.232 25.971 82.5884 25.4805 82.5015 24.8674C82.4436 24.4638 81.9145 23.7008 80.8136 22.5578C76.9013 18.4925 73.0489 14.382 69.1231 10.261C68.2028 9.29397 67.5405 8.68464 67.0848 8.41558C66.7692 8.22918 66.3747 8.08409 65.8969 8.02703C65.2181 7.94689 64.6708 8.03638 64.176 8.24024C63.9028 8.35238 63.6613 8.41559 63.4273 8.51612C63.2716 8.34825 63.0928 8.16652 62.8925 7.98625C65.8912 6.88479 68.8264 5.80504 71.6969 4.73357C71.8296 4.91384 72.0057 5.08089 72.1833 5.24675C71.9271 5.34649 71.6887 5.42476 71.4328 5.5193C70.6391 5.81143 70.2759 6.26649 70.3216 6.87342C70.3503 7.25595 70.9263 8.00131 72.0092 9.14771C75.8571 13.2208 79.7463 17.2978 83.5511 21.3313C84.4388 22.274 85.0811 22.8817 85.488 23.1266C85.8048 23.3174 86.1717 23.4256 86.6012 23.4536C87.2308 23.4936 87.7573 23.4089 88.2029 23.2082C88.4357 23.1036 88.6492 23.0174 88.9052 22.9149V22.9149ZM81.3779 2.40117C83.3904 2.19411 85.3369 2.00171 87.3245 1.76958C94.6451 6.07491 101.768 10.2452 108.787 14.3468C106.507 10.7717 104.237 7.22876 102.012 3.65516C101.304 2.51676 100.703 1.81386 100.263 1.56332C99.6681 1.22426 98.9325 1.09342 98.1793 1.17888C97.9144 1.20835 97.6707 1.22917 97.4733 1.26051C97.3637 1.08251 97.2537 0.918522 97.1415 0.727588C99.4644 0.492522 101.765 0.259315 104.042 0.000781715C104.153 0.189048 104.284 0.351959 104.371 0.515959C104.128 0.534892 103.907 0.562779 103.685 0.583179C102.844 0.664112 102.404 0.958918 102.356 1.45932C102.324 1.79199 102.657 2.46011 103.315 3.50518C106.573 8.67638 109.871 13.8588 113.126 19.0621C112.951 19.0965 112.799 19.1274 112.644 19.1482C105.156 14.8453 97.5345 10.4025 89.6735 5.85796C92.14 9.80943 94.6916 13.7576 97.1577 17.7128C97.9023 18.9078 98.5071 19.6412 98.9372 19.88C99.5827 20.2376 100.286 20.3192 101.097 20.196C101.362 20.1562 101.603 20.1222 101.821 20.0742C101.932 20.2489 102.041 20.4102 102.151 20.5853C99.7623 20.99 97.3743 21.3945 94.8768 21.8321C94.7649 21.6307 94.656 21.467 94.5449 21.2917C94.7864 21.2538 95.0472 21.1972 95.3111 21.1529C96.2087 21.0021 96.7272 20.6494 96.7719 20.1049C96.8001 19.756 96.4907 19.0304 95.7987 17.9377C92.9599 13.4562 90.1131 8.95715 87.3151 4.49728C86.2609 3.91568 85.5269 3.53319 85.0519 3.34946C84.6116 3.17946 84.0049 3.02412 83.2521 2.91452C82.8651 2.85812 82.3733 2.87171 81.712 2.95411C81.6016 2.77464 81.4904 2.60757 81.3779 2.40117V2.40117ZM133.446 3.51543C134.101 5.30316 134.802 7.08783 135.481 8.88343C135.298 8.8517 135.184 8.83211 135.002 8.79998C134.123 7.39438 133.17 6.27905 132.197 5.47091C130.79 4.30425 129.152 3.54715 127.301 3.21449C124.831 2.76929 123.145 3.26822 122.289 4.75542C121.546 6.04462 121.454 7.71969 122.026 9.76596C122.496 11.4482 123.327 13.0312 124.443 14.5418C125.559 16.0498 126.836 17.1954 128.253 18.036C129.622 18.8485 130.957 19.3765 132.161 19.544C132.911 19.649 133.584 19.6721 134.202 19.6019C134.842 19.5293 135.405 19.3732 135.936 19.1381C135.453 17.4876 134.941 15.8121 134.484 14.1562C134.244 13.2866 134.005 12.7106 133.79 12.4226C133.582 12.1437 133.261 11.8953 132.925 11.7109C132.59 11.5249 132.011 11.3586 131.215 11.2396C131.172 11.0797 131.131 10.9192 131.07 10.7717C133.577 11.1656 136.062 11.5704 138.523 11.9736C138.542 12.133 138.584 12.2918 138.645 12.4373C138.533 12.4293 138.397 12.4033 138.304 12.3882C137.576 12.2741 137.122 12.4003 136.986 12.784C136.887 13.0659 137.001 13.6729 137.263 14.5899C137.757 16.3243 138.273 18.0813 138.812 19.8357C137.873 20.2141 136.895 20.4514 135.923 20.552C134.929 20.6544 133.738 20.6037 132.42 20.4162C128.578 19.8705 125.293 18.3675 122.606 15.8447C120.592 13.9548 119.271 11.9278 118.691 9.75424C118.271 8.18544 118.342 6.79142 118.821 5.53476C119.384 4.05662 120.426 3.00252 121.95 2.43478C123.215 1.96465 124.801 1.91105 126.79 2.28065C127.501 2.41331 128.169 2.60343 128.774 2.80063C129.403 3.00476 130.276 3.37851 131.433 3.91944C132.003 4.18584 132.377 4.32568 132.514 4.34648C132.718 4.37715 132.856 4.33984 132.926 4.23544C133.01 4.10997 133.015 3.84915 132.922 3.43075C133.082 3.46355 133.287 3.4957 133.446 3.51543H133.446ZM161.657 13.801C161.721 14.9534 161.785 16.0937 161.871 17.2457C161.709 17.1928 161.545 17.1273 161.381 17.0624C161.285 16.4048 161.161 15.9417 160.992 15.6102C160.728 15.0921 160.373 14.6426 159.944 14.2681C159.503 13.883 158.896 13.5462 158.194 13.2409C157.368 12.881 156.548 12.5314 155.728 12.2004C155.703 15.8949 155.686 19.6558 155.658 23.4902C155.651 24.4381 155.758 25.0848 155.989 25.3905C156.339 25.8569 156.862 26.2228 157.566 26.4953C157.797 26.5841 157.987 26.6657 158.195 26.727C158.19 26.8729 158.183 27.0062 158.199 27.1506C155.628 26.151 153.031 25.134 150.388 24.1002C150.418 23.9762 150.423 23.8172 150.429 23.6709C150.641 23.7702 150.846 23.8731 151.063 23.9555C151.872 24.2589 152.414 24.2805 152.769 24.0137C152.969 23.8625 153.077 23.3292 153.084 22.4887C153.118 18.618 153.169 14.8604 153.213 11.1436C152.483 10.831 151.774 10.5374 151.049 10.2274C150.199 9.86316 149.597 9.66196 149.28 9.62049C148.779 9.55689 148.359 9.63118 148.013 9.88424C147.678 10.1318 147.445 10.5877 147.385 11.226C147.245 11.1701 147.033 11.0797 146.868 11.0128C146.941 9.89865 147.057 8.7705 147.177 7.6797C152.093 9.7641 156.935 11.8164 161.657 13.801H161.657ZM178.989 23.3772C180.953 24.7201 182.51 26.4794 183.574 28.6122C184.64 30.75 184.914 32.6929 184.343 34.4689C183.755 36.2937 182.527 37.3603 180.613 37.6159C178.68 37.8736 176.608 37.2798 174.412 35.8337C172.195 34.3756 170.503 32.5172 169.408 30.2793C168.322 28.0597 168.154 26.0217 168.867 24.1441C169.581 22.2618 171.05 21.3212 173.193 21.3117C175.047 21.3024 176.984 22.0064 178.989 23.3772V23.3772ZM178.552 23.8606C177.163 22.9157 175.923 22.5366 174.784 22.7282C173.38 22.9645 172.291 24.0227 171.594 25.9226C170.875 27.8838 170.895 29.8081 171.639 31.6521C172.199 33.0396 173.201 34.2482 174.605 35.1773C176.12 36.1788 177.546 36.5148 178.831 36.2424C180.074 35.9777 181.045 34.8763 181.674 32.9534C182.34 30.9162 182.319 29.0469 181.601 27.3465C181.04 26.0149 180.017 24.8588 178.552 23.8606V23.8606ZM194.375 34.1988C195.513 35.404 196.67 36.5825 197.804 37.7696C198.483 42.4748 199.126 47.271 199.822 52.145C201.307 50.4708 202.768 48.8025 204.197 47.1821C204.649 46.6689 204.825 46.2532 204.773 45.9557C204.703 45.5476 204.381 45.0917 203.908 44.58C203.775 44.4352 203.63 44.2677 203.48 44.1169C203.561 44.0425 203.596 43.9578 203.678 43.8932C205.114 45.4092 206.573 46.9188 208.029 48.4113C207.972 48.4966 207.912 48.559 207.853 48.6334C207.682 48.4869 207.545 48.3262 207.402 48.1762C206.863 47.6096 206.397 47.344 205.995 47.3356C205.728 47.3289 205.41 47.5582 205.002 48.0277C202.92 50.428 200.795 52.8866 198.605 55.4226C198.48 55.3054 198.377 55.1754 198.252 55.0584C197.504 49.7114 196.787 44.4665 196.062 39.3484C194.42 41.0189 192.784 42.7113 191.102 44.4533C190.586 44.9877 190.353 45.4141 190.399 45.727C190.461 46.1693 190.782 46.636 191.295 47.1708C191.44 47.322 191.598 47.4977 191.749 47.6497C191.692 47.7374 191.611 47.8133 191.531 47.8905C189.972 46.3012 188.414 44.7308 186.875 43.1297C186.956 43.064 187.036 42.9766 187.095 42.9014C187.268 43.0647 187.426 43.1993 187.593 43.3709C188.155 43.9446 188.652 44.267 189.1 44.2889C189.391 44.3033 189.771 44.0674 190.246 43.5796C192.153 41.6244 193.985 39.7192 195.85 37.838C195.753 37.169 195.637 36.7102 195.537 36.4272C195.441 36.1542 195.249 35.7789 194.946 35.3265C194.794 35.0986 194.508 34.7834 194.154 34.4112C194.235 34.336 194.295 34.2736 194.375 34.1988V34.1988ZM207.991 52.3189C208.069 52.2196 208.169 52.1073 208.247 52.0086C209.093 52.4176 209.717 52.625 210.118 52.6364C210.408 52.6444 210.637 52.5181 210.818 52.2989C210.932 52.1598 210.988 52.0317 210.951 51.8968C210.914 51.761 210.885 51.6461 210.804 51.5657C210.734 51.4975 210.63 51.422 210.489 51.3276C210.294 51.1982 210.174 51.0785 210.071 50.9745C209.824 50.7296 209.677 50.4413 209.599 50.1302C209.518 49.7983 209.542 49.5542 209.693 49.3629C209.855 49.1599 210.065 49.1037 210.341 49.1812C210.731 49.2896 211.117 49.5277 211.443 49.8808C211.851 50.3229 212.121 50.7957 212.252 51.3684C212.379 51.9318 212.325 52.3986 212.024 52.7634C211.616 53.2645 210.982 53.4316 210.123 53.2804C209.552 53.1802 208.828 52.8432 207.991 52.3189V52.3189ZM221.119 61.2488C220.32 62.2848 219.566 63.3189 218.813 64.3669C218.71 64.2402 218.587 64.1382 218.485 64.0124C218.806 63.2932 218.978 62.6152 218.951 61.9665C218.926 61.3308 218.713 60.6588 218.347 59.9044C217.995 59.1784 217.541 58.5014 216.997 57.9258C216.383 57.2765 215.748 56.8925 215.131 56.7304C214.534 56.5724 214.071 56.6737 213.784 57.0289C213.58 57.2818 213.538 57.6708 213.618 58.1582C213.737 58.879 214.288 60.2506 215.293 62.2792C216.115 63.9384 216.647 65.1198 216.903 65.8129C217.151 66.4861 217.247 67.1377 217.243 67.7096C217.239 68.295 217.072 68.7716 216.801 69.156C216.282 69.8888 215.464 70.1228 214.347 69.8842C213.188 69.6378 212.041 68.9145 210.862 67.6956C210.488 67.3077 210.139 66.926 209.847 66.5458C209.671 66.3182 209.33 65.8219 208.836 65.0469C208.335 64.2626 207.988 63.7792 207.835 63.6232C207.663 63.4518 207.519 63.3578 207.356 63.3241C207.222 63.2958 207.031 63.3925 206.827 63.5641C206.681 63.4508 206.579 63.334 206.475 63.1941C207.314 62.1272 208.153 61.0613 208.994 60.0083C209.118 60.1239 209.22 60.2415 209.345 60.3662C208.991 61.197 208.826 61.917 208.827 62.541C208.83 63.1628 209.06 63.8813 209.464 64.693C209.859 65.4849 210.392 66.2457 211.069 66.9471C211.845 67.7511 212.589 68.2345 213.273 68.3929C213.934 68.547 214.456 68.4069 214.761 67.99C214.941 67.7458 215.023 67.4245 215.034 67.0197C215.044 66.6056 214.938 66.1104 214.716 65.537C214.566 65.15 214.135 64.1795 213.396 62.6317C212.661 61.0897 212.171 59.9501 211.91 59.2173C211.657 58.506 211.55 57.8748 211.568 57.3204C211.586 56.7909 211.702 56.3282 211.998 55.9597C212.484 55.3501 213.246 55.1653 214.274 55.4139C215.304 55.6615 216.324 56.3282 217.363 57.4096C218.005 58.0758 218.588 58.8916 219.168 59.8817C219.435 60.3376 219.628 60.6474 219.755 60.7813C219.904 60.9389 220.052 61.0448 220.21 61.078C220.347 61.1066 220.519 61.0576 220.749 60.92C220.873 61.0337 220.974 61.1377 221.119 61.2488Z" fill="url(#paint5_linear)"/>
<path fill-rule="evenodd" clip-rule="evenodd" d="M217.858 79.3645C219.553 79.467 221.366 81.1788 221.918 83.2098C222.472 85.225 221.598 86.8156 219.899 86.7468C218.201 86.6953 216.363 84.9733 215.791 82.9165C215.219 80.8601 216.162 79.2625 217.858 79.3645" fill="#59362D"/>
<path fill-rule="evenodd" clip-rule="evenodd" d="M218.667 78.8251C220.361 78.9275 222.174 80.6404 222.727 82.6708C223.28 84.6852 222.407 86.2757 220.707 86.2076C219.009 86.1563 217.171 84.4336 216.599 82.3771C216.028 80.3199 216.972 78.7223 218.667 78.8251Z" fill="url(#paint6_linear)"/>
<path fill-rule="evenodd" clip-rule="evenodd" d="M48.1489 150.113C52.4036 149.437 56.1418 151.759 56.7137 155.338C57.2833 158.892 54.4222 162.388 50.171 163.193C45.8537 164.009 41.9196 161.656 41.3786 157.983C40.8148 154.282 43.8928 150.789 48.1489 150.113" fill="#59362D"/>
<path fill-rule="evenodd" clip-rule="evenodd" d="M49.1301 149.131C53.3852 148.455 57.1238 150.776 57.6949 154.357C58.266 157.911 55.4037 161.407 51.1525 162.212C46.8348 163.027 42.901 160.674 42.361 157.001C41.796 153.3 44.8754 149.807 49.1301 149.131" fill="url(#paint7_linear)"/>
<path fill-rule="evenodd" clip-rule="evenodd" d="M158.039 113.973C154.639 115.37 149.79 113.856 149.385 111.761C149.092 110.252 151.918 104.887 159.481 109.104C165.792 112.622 163.116 111.888 158.039 113.973" fill="#F7F5C0"/>
<defs>
<linearGradient id="paint0_linear" x1="77.6525" y1="135.688" x2="147.125" y2="170.253" gradientUnits="userSpaceOnUse">
<stop stop-color="#E8981A"/>
<stop offset="0.27" stop-color="#F7F5C0"/>
<stop offset="0.45" stop-color="#F7F5C0"/>
<stop offset="0.63" stop-color="#DD9E20"/>
<stop offset="1" stop-color="#BB6123"/>
</linearGradient>
<linearGradient id="paint1_linear" x1="124.988" y1="144.228" x2="194.975" y2="179.049" gradientUnits="userSpaceOnUse">
<stop stop-color="#E8981A"/>
<stop offset="0.27" stop-color="#F7F5C0"/>
<stop offset="0.45" stop-color="#F7F5C0"/>
<stop offset="0.63" stop-color="#DD9E20"/>
<stop offset="1" stop-color="#BB6123"/>
</linearGradient>
<linearGradient id="paint2_linear" x1="75.985" y1="103.591" x2="166.303" y2="148.526" gradientUnits="userSpaceOnUse">
<stop stop-color="#E8981A"/>
<stop offset="0.27" stop-color="#F7F5C0"/>
<stop offset="0.45" stop-color="#F7F5C0"/>
<stop offset="0.63" stop-color="#DD9E20"/>
<stop offset="1" stop-color="#BB6123"/>
</linearGradient>
<linearGradient id="paint3_linear" x1="0.792532" y1="148.483" x2="181.529" y2="238.406" gradientUnits="userSpaceOnUse">
<stop stop-color="#E8981A"/>
<stop offset="0.27" stop-color="#F7F5C0"/>
<stop offset="0.45" stop-color="#F7F5C0"/>
<stop offset="0.63" stop-color="#DD9E20"/>
<stop offset="1" stop-color="#BB6123"/>
</linearGradient>
<linearGradient id="paint4_linear" x1="5.8296" y1="186.945" x2="230.177" y2="315.144" gradientUnits="userSpaceOnUse">
<stop stop-color="#E8981A"/>
<stop offset="0.27" stop-color="#F7F5C0"/>
<stop offset="0.45" stop-color="#F7F5C0"/>
<stop offset="0.63" stop-color="#DD9E20"/>
<stop offset="1" stop-color="#BB6123"/>
</linearGradient>
<linearGradient id="paint5_linear" x1="-111.088" y1="91.0456" x2="228.011" y2="297.421" gradientUnits="userSpaceOnUse">
<stop stop-color="#E8981A"/>
<stop offset="0.27" stop-color="#F7F5C0"/>
<stop offset="0.45" stop-color="#F7F5C0"/>
<stop offset="0.63" stop-color="#DD9E20"/>
<stop offset="1" stop-color="#BB6123"/>
</linearGradient>
<linearGradient id="paint6_linear" x1="213.038" y1="85.0341" x2="221.644" y2="89.3179" gradientUnits="userSpaceOnUse">
<stop stop-color="#E8981A"/>
<stop offset="0.27" stop-color="#F7F5C0"/>
<stop offset="0.45" stop-color="#F7F5C0"/>
<stop offset="0.63" stop-color="#DD9E20"/>
<stop offset="1" stop-color="#BB6123"/>
</linearGradient>
<linearGradient id="paint7_linear" x1="36.3669" y1="160.121" x2="54.7434" y2="169.264" gradientUnits="userSpaceOnUse">
<stop stop-color="#E8981A"/>
<stop offset="0.27" stop-color="#F7F5C0"/>
<stop offset="0.45" stop-color="#F7F5C0"/>
<stop offset="0.63" stop-color="#DD9E20"/>
<stop offset="1" stop-color="#BB6123"/>
</linearGradient>
</defs>
</svg>
