<svg width="310" height="52" viewBox="0 0 310 52" fill="none" xmlns="http://www.w3.org/2000/svg">
<rect y="38" width="307" height="3" fill="#202020"/>
<rect y="27" width="3" height="25" fill="#202020"/>
<rect x="77" y="32" width="3" height="15" fill="#202020"/>
<rect x="231" y="32" width="3" height="15" fill="#202020"/>
<rect x="154" y="32" width="3" height="15" fill="#202020"/>
<rect x="307" y="27" width="3" height="25" fill="#202020"/>
<path d="M5.3252 3.04688H6.64453V10.0947C6.64453 11.0472 6.35742 11.7923 5.7832 12.3301C5.21354 12.8678 4.45247 13.1367 3.5 13.1367C2.51107 13.1367 1.74089 12.8838 1.18945 12.3779C0.638021 11.8721 0.362305 11.1634 0.362305 10.252H1.6748C1.6748 10.8216 1.82975 11.266 2.13965 11.585C2.4541 11.904 2.90755 12.0635 3.5 12.0635C4.04232 12.0635 4.47982 11.8926 4.8125 11.5508C5.14974 11.209 5.32064 10.7305 5.3252 10.1152V3.04688ZM13.248 13C13.1751 12.8542 13.1159 12.5944 13.0703 12.2207C12.4824 12.8314 11.7806 13.1367 10.9648 13.1367C10.2357 13.1367 9.63639 12.9316 9.16699 12.5215C8.70215 12.1068 8.46973 11.5827 8.46973 10.9492C8.46973 10.179 8.76139 9.58203 9.34473 9.1582C9.93262 8.72982 10.7575 8.51562 11.8193 8.51562H13.0498V7.93457C13.0498 7.49251 12.9176 7.1416 12.6533 6.88184C12.389 6.61751 11.9993 6.48535 11.4844 6.48535C11.0332 6.48535 10.6549 6.59928 10.3496 6.82715C10.0443 7.05501 9.8916 7.33073 9.8916 7.6543H8.62012C8.62012 7.28516 8.75 6.92969 9.00977 6.58789C9.27409 6.24154 9.62956 5.9681 10.0762 5.76758C10.5273 5.56706 11.0218 5.4668 11.5596 5.4668C12.4118 5.4668 13.0794 5.68099 13.5625 6.10938C14.0456 6.5332 14.2962 7.11882 14.3145 7.86621V11.2705C14.3145 11.9495 14.401 12.4896 14.5742 12.8906V13H13.248ZM11.1494 12.0361C11.5459 12.0361 11.9219 11.9336 12.2773 11.7285C12.6328 11.5234 12.8903 11.2568 13.0498 10.9287V9.41113H12.0586C10.5091 9.41113 9.73438 9.86458 9.73438 10.7715C9.73438 11.168 9.86654 11.4779 10.1309 11.7012C10.3952 11.9245 10.7347 12.0361 11.1494 12.0361ZM17.4932 5.60352L17.5342 6.5332C18.0993 5.82227 18.8376 5.4668 19.749 5.4668C21.3122 5.4668 22.1006 6.34863 22.1143 8.1123V13H20.8496V8.10547C20.8451 7.57227 20.722 7.17806 20.4805 6.92285C20.2435 6.66764 19.8721 6.54004 19.3662 6.54004C18.9561 6.54004 18.596 6.64941 18.2861 6.86816C17.9762 7.08691 17.7347 7.37402 17.5615 7.72949V13H16.2969V5.60352H17.4932ZM33.8857 13H27.3643V12.0908L30.8096 8.2627C31.32 7.68392 31.6709 7.21452 31.8623 6.85449C32.0583 6.48991 32.1562 6.11393 32.1562 5.72656C32.1562 5.20703 31.999 4.78092 31.6846 4.44824C31.3701 4.11556 30.9508 3.94922 30.4268 3.94922C29.7979 3.94922 29.3079 4.12923 28.957 4.48926C28.6107 4.84473 28.4375 5.34147 28.4375 5.97949H27.1729C27.1729 5.06348 27.4668 4.32292 28.0547 3.75781C28.6471 3.19271 29.4378 2.91016 30.4268 2.91016C31.3519 2.91016 32.0833 3.15397 32.6211 3.6416C33.1589 4.12467 33.4277 4.76953 33.4277 5.57617C33.4277 6.55599 32.8034 7.72266 31.5547 9.07617L28.8887 11.9678H33.8857V13ZM41.4668 8.75488C41.4668 10.236 41.2139 11.3366 40.708 12.0566C40.2021 12.7767 39.4115 13.1367 38.3359 13.1367C37.2741 13.1367 36.488 12.7858 35.9775 12.084C35.4671 11.3776 35.2028 10.3249 35.1846 8.92578V7.2373C35.1846 5.77441 35.4375 4.6875 35.9434 3.97656C36.4492 3.26562 37.2422 2.91016 38.3223 2.91016C39.3932 2.91016 40.1816 3.25423 40.6875 3.94238C41.1934 4.62598 41.4531 5.68327 41.4668 7.11426V8.75488ZM40.2021 7.02539C40.2021 5.95443 40.0518 5.17513 39.751 4.6875C39.4502 4.19531 38.974 3.94922 38.3223 3.94922C37.6751 3.94922 37.2035 4.19303 36.9072 4.68066C36.611 5.16829 36.4583 5.91797 36.4492 6.92969V8.95312C36.4492 10.0286 36.6042 10.8239 36.9141 11.3389C37.2285 11.8493 37.7025 12.1045 38.3359 12.1045C38.9603 12.1045 39.4229 11.863 39.7236 11.3799C40.029 10.8968 40.1885 10.1357 40.2021 9.09668V7.02539ZM49.6084 13H43.0869V12.0908L46.5322 8.2627C47.0426 7.68392 47.3936 7.21452 47.585 6.85449C47.7809 6.48991 47.8789 6.11393 47.8789 5.72656C47.8789 5.20703 47.7217 4.78092 47.4072 4.44824C47.0928 4.11556 46.6735 3.94922 46.1494 3.94922C45.5205 3.94922 45.0306 4.12923 44.6797 4.48926C44.3333 4.84473 44.1602 5.34147 44.1602 5.97949H42.8955C42.8955 5.06348 43.1895 4.32292 43.7773 3.75781C44.3698 3.19271 45.1605 2.91016 46.1494 2.91016C47.0745 2.91016 47.806 3.15397 48.3438 3.6416C48.8815 4.12467 49.1504 4.76953 49.1504 5.57617C49.1504 6.55599 48.526 7.72266 47.2773 9.07617L44.6113 11.9678H49.6084V13ZM55.1045 13H53.833V4.57129L51.2832 5.50781V4.35938L54.9062 2.99902H55.1045V13Z" fill="#383838"/>
<path d="M128.851 3.04688L132.104 11.168L135.358 3.04688H137.061V13H135.748V9.12402L135.871 4.94043L132.604 13H131.599L128.338 4.96094L128.468 9.12402V13H127.155V3.04688H128.851ZM143.746 13C143.673 12.8542 143.614 12.5944 143.568 12.2207C142.98 12.8314 142.279 13.1367 141.463 13.1367C140.734 13.1367 140.134 12.9316 139.665 12.5215C139.2 12.1068 138.968 11.5827 138.968 10.9492C138.968 10.179 139.259 9.58203 139.843 9.1582C140.431 8.72982 141.256 8.51562 142.317 8.51562H143.548V7.93457C143.548 7.49251 143.416 7.1416 143.151 6.88184C142.887 6.61751 142.497 6.48535 141.982 6.48535C141.531 6.48535 141.153 6.59928 140.848 6.82715C140.542 7.05501 140.39 7.33073 140.39 7.6543H139.118C139.118 7.28516 139.248 6.92969 139.508 6.58789C139.772 6.24154 140.128 5.9681 140.574 5.76758C141.025 5.56706 141.52 5.4668 142.058 5.4668C142.91 5.4668 143.577 5.68099 144.061 6.10938C144.544 6.5332 144.794 7.11882 144.812 7.86621V11.2705C144.812 11.9495 144.899 12.4896 145.072 12.8906V13H143.746ZM141.647 12.0361C142.044 12.0361 142.42 11.9336 142.775 11.7285C143.131 11.5234 143.388 11.2568 143.548 10.9287V9.41113H142.557C141.007 9.41113 140.232 9.86458 140.232 10.7715C140.232 11.168 140.365 11.4779 140.629 11.7012C140.893 11.9245 141.233 12.0361 141.647 12.0361ZM149.105 11.1475L150.828 5.60352H152.182L149.208 14.1416C148.748 15.3721 148.016 15.9873 147.014 15.9873L146.774 15.9668L146.303 15.8779V14.8525L146.645 14.8799C147.073 14.8799 147.406 14.7933 147.643 14.6201C147.884 14.4469 148.082 14.1302 148.237 13.6699L148.518 12.918L145.879 5.60352H147.26L149.105 11.1475ZM163.181 13H156.659V12.0908L160.104 8.2627C160.615 7.68392 160.966 7.21452 161.157 6.85449C161.353 6.48991 161.451 6.11393 161.451 5.72656C161.451 5.20703 161.294 4.78092 160.979 4.44824C160.665 4.11556 160.246 3.94922 159.722 3.94922C159.093 3.94922 158.603 4.12923 158.252 4.48926C157.906 4.84473 157.732 5.34147 157.732 5.97949H156.468C156.468 5.06348 156.762 4.32292 157.35 3.75781C157.942 3.19271 158.733 2.91016 159.722 2.91016C160.647 2.91016 161.378 3.15397 161.916 3.6416C162.454 4.12467 162.723 4.76953 162.723 5.57617C162.723 6.55599 162.098 7.72266 160.85 9.07617L158.184 11.9678H163.181V13ZM170.762 8.75488C170.762 10.236 170.509 11.3366 170.003 12.0566C169.497 12.7767 168.706 13.1367 167.631 13.1367C166.569 13.1367 165.783 12.7858 165.272 12.084C164.762 11.3776 164.498 10.3249 164.479 8.92578V7.2373C164.479 5.77441 164.732 4.6875 165.238 3.97656C165.744 3.26562 166.537 2.91016 167.617 2.91016C168.688 2.91016 169.477 3.25423 169.982 3.94238C170.488 4.62598 170.748 5.68327 170.762 7.11426V8.75488ZM169.497 7.02539C169.497 5.95443 169.347 5.17513 169.046 4.6875C168.745 4.19531 168.269 3.94922 167.617 3.94922C166.97 3.94922 166.498 4.19303 166.202 4.68066C165.906 5.16829 165.753 5.91797 165.744 6.92969V8.95312C165.744 10.0286 165.899 10.8239 166.209 11.3389C166.523 11.8493 166.997 12.1045 167.631 12.1045C168.255 12.1045 168.718 11.863 169.019 11.3799C169.324 10.8968 169.483 10.1357 169.497 9.09668V7.02539ZM178.903 13H172.382V12.0908L175.827 8.2627C176.338 7.68392 176.688 7.21452 176.88 6.85449C177.076 6.48991 177.174 6.11393 177.174 5.72656C177.174 5.20703 177.017 4.78092 176.702 4.44824C176.388 4.11556 175.968 3.94922 175.444 3.94922C174.815 3.94922 174.326 4.12923 173.975 4.48926C173.628 4.84473 173.455 5.34147 173.455 5.97949H172.19C172.19 5.06348 172.484 4.32292 173.072 3.75781C173.665 3.19271 174.455 2.91016 175.444 2.91016C176.369 2.91016 177.101 3.15397 177.639 3.6416C178.176 4.12467 178.445 4.76953 178.445 5.57617C178.445 6.55599 177.821 7.72266 176.572 9.07617L173.906 11.9678H178.903V13ZM184.399 13H183.128V4.57129L180.578 5.50781V4.35938L184.201 2.99902H184.399V13Z" fill="#383838"/>
<path d="M261.325 3.04688H262.645V10.0947C262.645 11.0472 262.357 11.7923 261.783 12.3301C261.214 12.8678 260.452 13.1367 259.5 13.1367C258.511 13.1367 257.741 12.8838 257.189 12.3779C256.638 11.8721 256.362 11.1634 256.362 10.252H257.675C257.675 10.8216 257.83 11.266 258.14 11.585C258.454 11.904 258.908 12.0635 259.5 12.0635C260.042 12.0635 260.48 11.8926 260.812 11.5508C261.15 11.209 261.321 10.7305 261.325 10.1152V3.04688ZM269.248 12.2686C268.756 12.8473 268.034 13.1367 267.081 13.1367C266.293 13.1367 265.691 12.9089 265.276 12.4531C264.866 11.9928 264.659 11.3138 264.654 10.416V5.60352H265.919V10.3818C265.919 11.5029 266.375 12.0635 267.286 12.0635C268.252 12.0635 268.895 11.7035 269.214 10.9834V5.60352H270.479V13H269.275L269.248 12.2686ZM273.78 13H272.516V2.5H273.78V13ZM285.675 13H279.153V12.0908L282.599 8.2627C283.109 7.68392 283.46 7.21452 283.651 6.85449C283.847 6.48991 283.945 6.11393 283.945 5.72656C283.945 5.20703 283.788 4.78092 283.474 4.44824C283.159 4.11556 282.74 3.94922 282.216 3.94922C281.587 3.94922 281.097 4.12923 280.746 4.48926C280.4 4.84473 280.227 5.34147 280.227 5.97949H278.962C278.962 5.06348 279.256 4.32292 279.844 3.75781C280.436 3.19271 281.227 2.91016 282.216 2.91016C283.141 2.91016 283.872 3.15397 284.41 3.6416C284.948 4.12467 285.217 4.76953 285.217 5.57617C285.217 6.55599 284.592 7.72266 283.344 9.07617L280.678 11.9678H285.675V13ZM293.256 8.75488C293.256 10.236 293.003 11.3366 292.497 12.0566C291.991 12.7767 291.201 13.1367 290.125 13.1367C289.063 13.1367 288.277 12.7858 287.767 12.084C287.256 11.3776 286.992 10.3249 286.974 8.92578V7.2373C286.974 5.77441 287.227 4.6875 287.732 3.97656C288.238 3.26562 289.031 2.91016 290.111 2.91016C291.182 2.91016 291.971 3.25423 292.477 3.94238C292.982 4.62598 293.242 5.68327 293.256 7.11426V8.75488ZM291.991 7.02539C291.991 5.95443 291.841 5.17513 291.54 4.6875C291.239 4.19531 290.763 3.94922 290.111 3.94922C289.464 3.94922 288.993 4.19303 288.696 4.68066C288.4 5.16829 288.247 5.91797 288.238 6.92969V8.95312C288.238 10.0286 288.393 10.8239 288.703 11.3389C289.018 11.8493 289.492 12.1045 290.125 12.1045C290.749 12.1045 291.212 11.863 291.513 11.3799C291.818 10.8968 291.978 10.1357 291.991 9.09668V7.02539ZM301.397 13H294.876V12.0908L298.321 8.2627C298.832 7.68392 299.183 7.21452 299.374 6.85449C299.57 6.48991 299.668 6.11393 299.668 5.72656C299.668 5.20703 299.511 4.78092 299.196 4.44824C298.882 4.11556 298.463 3.94922 297.938 3.94922C297.31 3.94922 296.82 4.12923 296.469 4.48926C296.122 4.84473 295.949 5.34147 295.949 5.97949H294.685C294.685 5.06348 294.979 4.32292 295.566 3.75781C296.159 3.19271 296.95 2.91016 297.938 2.91016C298.864 2.91016 299.595 3.15397 300.133 3.6416C300.671 4.12467 300.939 4.76953 300.939 5.57617C300.939 6.55599 300.315 7.72266 299.066 9.07617L296.4 11.9678H301.397V13ZM306.894 13H305.622V4.57129L303.072 5.50781V4.35938L306.695 2.99902H306.894V13Z" fill="#383838"/>
</svg>
