<svg width="85" height="85" viewBox="0 0 85 85" fill="none" xmlns="http://www.w3.org/2000/svg">
<path d="M75.9307 16.259H78.557C79.4731 16.259 80.2161 15.5161 80.2161 14.6C80.2161 13.6838 79.4731 12.9409 78.557 12.9409H72.2526C71.3364 12.9409 70.5935 13.6838 70.5935 14.6V20.9044C70.5935 21.8206 71.3364 22.5635 72.2526 22.5635C73.1687 22.5635 73.9116 21.8206 73.9116 20.9044V19.0789C78.9456 25.8182 81.6819 33.9953 81.6819 42.5C81.6819 64.105 64.105 81.6819 42.5 81.6819C20.895 81.6819 3.31813 64.105 3.31813 42.5C3.31813 20.895 20.895 3.31813 42.5 3.31813C44.0978 3.31813 45.706 3.41519 47.2801 3.60648C48.1884 3.71631 49.0168 3.06944 49.1273 2.15977C49.238 1.25027 48.5903 0.423062 47.6806 0.312568C45.9741 0.105185 44.2312 0 42.5 0C31.1478 0 20.475 4.42075 12.448 12.448C4.42075 20.475 0 31.1478 0 42.5C0 53.8522 4.42075 64.5249 12.448 72.552C20.475 80.5792 31.1478 85 42.5 85C53.8522 85 64.5249 80.5792 72.552 72.552C80.5792 64.5249 85 53.8522 85 42.5C85 32.9204 81.7997 23.7238 75.9307 16.259Z" fill="black"/>
<path d="M17.9962 25.0541C17.222 24.564 16.1972 24.7946 15.7069 25.5684C11.9194 31.5503 10.2428 38.7444 10.9859 45.8254C11.7399 53.0115 14.9743 59.7881 20.0931 64.9072C26.2707 71.0847 34.3853 74.1736 42.5002 74.1736C50.615 74.1736 58.7295 71.0849 64.9072 64.9072C77.2625 52.5519 77.2625 32.4484 64.9072 20.0933C59.7961 14.9824 53.0306 11.7492 45.8565 10.9893C38.7885 10.2402 31.6023 11.9038 25.6228 15.6727C24.8475 16.1613 24.6154 17.1858 25.1039 17.9609C25.5925 18.7362 26.6169 18.9683 27.392 18.4798C38.6634 11.3757 53.125 13.0038 62.5608 22.4395C73.6223 33.501 73.6223 51.4993 62.5608 62.5608C51.4995 73.6224 33.5009 73.6224 22.4396 62.5608C13.1342 53.2554 11.4817 38.4444 18.5106 27.3436C19.0005 26.5693 18.7704 25.5443 17.9962 25.0541Z" fill="black"/>
<path d="M64.068 44.1859H66.114C67.0301 44.1859 67.7731 43.443 67.7731 42.5269C67.7731 41.6107 67.0301 40.8678 66.114 40.8678H64.068C63.1519 40.8678 62.409 41.6107 62.409 42.5269C62.409 43.443 63.1517 44.1859 64.068 44.1859Z" fill="black"/>
<path d="M17.2269 42.473C17.2269 43.3892 17.9699 44.1321 18.886 44.1321H20.932C21.8481 44.1321 22.591 43.3892 22.591 42.473C22.591 41.5569 21.8481 40.814 20.932 40.814H18.886C17.9699 40.814 17.2269 41.5567 17.2269 42.473Z" fill="black"/>
<path d="M44.1859 20.932V18.886C44.1859 17.9699 43.443 17.2269 42.5269 17.2269C41.6107 17.2269 40.8678 17.9699 40.8678 18.886V20.932C40.8678 21.8481 41.6107 22.591 42.5269 22.591C43.443 22.591 44.1859 21.8481 44.1859 20.932Z" fill="black"/>
<path d="M40.8141 64.068V66.114C40.8141 67.0301 41.557 67.773 42.4731 67.773C43.3893 67.773 44.1322 67.0301 44.1322 66.114V64.068C44.1322 63.1519 43.3893 62.4089 42.4731 62.4089C41.557 62.4089 40.8141 63.1517 40.8141 64.068Z" fill="black"/>
<path d="M34.1841 31.8377C33.536 31.19 32.4859 31.19 31.8377 31.8377C31.1898 32.4856 31.1898 33.5361 31.8377 34.1842L37.4604 39.8069C37.0295 40.6099 36.7845 41.5269 36.7845 42.5001C36.7845 45.6516 39.3484 48.2156 42.5 48.2156C45.6516 48.2156 48.2155 45.6516 48.2155 42.5001C48.2155 41.5269 47.9703 40.6099 47.5396 39.8069L58.8848 28.4617C59.5326 27.8138 59.5326 26.7633 58.8848 26.1153C58.2367 25.4676 57.1866 25.4676 56.5384 26.1153L45.1932 37.4605C44.3902 37.0296 43.4732 36.7846 42.5 36.7846C41.5268 36.7846 40.6098 37.0298 39.8068 37.4605L34.1841 31.8377ZM44.8973 42.5001C44.8973 43.822 43.8219 44.8974 42.5 44.8974C41.178 44.8974 40.1026 43.822 40.1026 42.5001C40.1026 41.1781 41.178 40.1027 42.5 40.1027C43.8219 40.1027 44.8973 41.1781 44.8973 42.5001Z" fill="black"/>
<path d="M22.4386 22.4386C22.7488 22.13 22.9262 21.702 22.9262 21.2656C22.9262 20.8293 22.7488 20.4029 22.4386 20.0927C22.13 19.7843 21.7034 19.6066 21.2656 19.6066C20.8293 19.6066 20.4012 19.7841 20.0926 20.0927C19.7842 20.4013 19.6065 20.8293 19.6065 21.2656C19.6065 21.7036 19.7841 22.13 20.0926 22.4386C20.4012 22.747 20.8293 22.9247 21.2656 22.9247C21.7034 22.9247 22.13 22.747 22.4386 22.4386Z" fill="black"/>
<path d="M53.9923 4.95693C54.4305 4.95693 54.8585 4.7809 55.167 4.47082C55.4756 4.16224 55.6532 3.73569 55.6532 3.29786C55.6532 2.86153 55.4757 2.43349 55.167 2.1249C54.8585 1.81648 54.4305 1.63879 53.9923 1.63879C53.556 1.63879 53.128 1.81631 52.8196 2.1249C52.511 2.43349 52.3333 2.86153 52.3333 3.29786C52.3333 3.73586 52.5108 4.16224 52.8196 4.47082C53.128 4.7809 53.556 4.95693 53.9923 4.95693Z" fill="black"/>
</svg>
